<?xml version="1.0" encoding="UTF-8"?>
<svg id="Layer_2" xmlns="http://www.w3.org/2000/svg" viewBox="0 0 170.68 154.96">
  <defs>
    <style>
      .cls-1 {
        fill: none;
        stroke: #000;
        stroke-linecap: round;
        stroke-linejoin: round;
        stroke-width: 4px;
      }
    </style>
  </defs>
  <g id="Layer_1-2" data-name="Layer_1">
    <g>
      <path class="cls-1" d="M123.56,4.52c-.677-.077-1.3.165-1.918.366-9.624,3.131-19.289,6.131-28.926,9.221-3.071.985-6.138,1.988-9.231,2.909-.834.248-1.664.573-2.405,1.064"/>
      <path class="cls-1" d="M55.64,100.04c-2.114,1.399-4.597,1.76-6.967,2.375-7.964,2.065-15.91,4.198-23.873,6.267-3.521.915-7.028,1.885-10.56,2.759"/>
      <path class="cls-1" d="M41.72,12.44c-.226,1.042.272,1.927.739,2.749,1.664,2.927,3.135,5.956,4.799,8.881.653,1.149,1.031,2.375,1.47,3.628.322.121.674.298.949.357,3.142,7.453,7.743,14.038,10.721,21.427.233.416.742.399,1.065.614,2.92,7.108,7.39,13.403,10.213,20.507.235.415.744.397,1.005.572,3.232,7.447,7.717,14.147,10.86,21.515.274.36.783.343,1.2.678.658,2.901,2.434,5.345,3.79,7.987,1.946,3.788,3.992,7.524,5.994,11.283.404.759.407,1.623.72,2.408.385.305.886.37,1.339.618,1.134,3.772,3.356,7.052,5.173,10.518,2.908,5.546,5.889,11.056,8.839,16.581,1.129,2.115,2.219,4.256,3.404,6.335.714,1.252,1.027,2.476.92,3.863"/>
      <path class="cls-1" d="M157.88,89.96c.073-.493-.108-.907-.356-1.322-1.89-3.171-3.703-6.387-5.533-9.593-.528-.926-.977-1.876-1.224-2.779-.398-.483-.907-.466-1.243-.69-4.672,1.806-9.56,2.721-14.329,4.044-5.581,1.548-11.209,2.923-16.797,4.45-.846.231-1.592.663-2.397.971"/>
      <path class="cls-1" d="M136.52,53c-2.63,1.569-5.645,1.948-8.52,2.761-6.9,1.952-13.824,3.818-20.755,5.658-1.013.269-1.993.714-2.885,1.301"/>
      <path class="cls-1" d="M125,33.44c-2.197,1.4-4.767,1.644-7.205,2.261-7.11,1.799-14.212,3.634-21.352,5.314-.958.225-1.77.851-2.644,1.305"/>
      <path class="cls-1" d="M92.48,41.72c-2.623,1.272-5.504,1.664-8.284,2.386-6.507,1.69-13.045,3.258-19.561,4.917-1.068.272-2.03.731-2.996,1.217"/>
      <path class="cls-1" d="M127.04,108.2c-2.132,1.166-4.541,1.398-6.848,1.883-6.764,1.424-13.49,3.019-20.27,4.368-1.15.229-2.253.647-3.242,1.309"/>
      <path class="cls-1" d="M114.92,84.56c-.776-2.66-2.215-5.011-3.487-7.436-2.161-4.12-4.245-8.279-6.45-12.376-.529-.984-.366-2.387-1.762-2.667-.938-3.225-2.725-5.951-4.177-8.822-1.428-2.824-2.867-5.649-4.402-8.419-.416-.751-.525-1.612-.836-2.401-.233-.526-.865-.379-1.245-.757-.937-3.519-3.052-6.536-4.659-9.792-1.812-3.673-3.786-7.266-5.645-10.917-.501-.984-.879-2.002-1.282-2.985-.495-.338-1.002-.349-1.449-.02-.941.694-2.04.972-3.124,1.318-7.797,2.488-15.596,4.973-23.403,7.431-1.105.348-2.107.903-3.119,1.444"/>
      <path class="cls-1" d="M103.04,62.12c-3.346,1.801-7.101,2.303-10.684,3.348-5.655,1.649-11.372,3.075-17.04,4.679-.894.253-1.648.71-2.396,1.213"/>
      <path class="cls-1" d="M137.84,127.88c-2.686-5.117-5.276-10.284-8.036-15.362-.62-1.14-1.174-2.314-1.405-3.613-.266-.512-.898-.366-1.266-.731-.988-3.512-3.016-6.571-4.665-9.807-1.746-3.427-3.454-6.875-5.366-10.219-.521-.911-.776-1.975-1.101-3.011-.464-.344-.933-.611-1.563-.341-3.622,1.557-7.51,2.195-11.282,3.232-5.182,1.425-10.384,2.779-15.593,4.108-.967.247-1.866.735-2.764,1.185"/>
      <path class="cls-1" d="M71.6,70.76c-2.926,1.453-6.138,1.994-9.242,2.872-5.108,1.444-10.245,2.781-15.359,4.205-.891.248-1.68.721-2.531,1.102-.548-.116-1.015-.452-1.529-.614-.411-2.213-1.709-4.013-2.809-5.867-2.415-4.072-4.691-8.224-7.156-12.266-.412-.676-.595-1.479-.769-2.316-.36-.468-1-.526-1.522-.802-4.135,1.903-8.64,2.506-12.974,3.686-5.052,1.376-10.157,2.569-15.23,3.875-.15.039-.319.005-.479.005"/>
      <path class="cls-1" d="M48.56,27.8c-3.627,1.818-7.583,2.691-11.406,3.943-4.7,1.539-9.402,3.08-14.148,4.479-.931.275-1.797.798-2.647,1.298"/>
      <path class="cls-1" d="M60.32,49.64c-3.051,1.598-6.457,2.01-9.726,2.858-5.183,1.345-10.372,2.67-15.59,3.881-1.023.237-1.973.755-2.884,1.301"/>
      <path class="cls-1" d="M95.12,115.16c-2.217,1.168-4.702,1.361-7.084,1.902-6.227,1.416-12.479,2.724-18.719,4.086-.361.079-.683.327-1.077.252"/>
      <path class="cls-1" d="M83.36,92.84c-2.327,1.273-4.924,1.719-7.443,2.39-5.475,1.457-10.962,2.874-16.436,4.335-.853.228-1.623.666-2.401,1.075"/>
      <path class="cls-1" d="M42.8,78.44c-2.155,1.539-4.769,1.798-7.21,2.486-4.706,1.328-9.442,2.551-14.15,3.876-.789.222-1.59.26-2.401.237"/>
      <path class="cls-1" d="M152.12,103.34c-2.706.153-5.288.964-7.918,1.511-4.409.917-8.803,1.904-13.202,2.869-.943.207-1.805.61-2.64,1.08"/>
      <path class="cls-1" d="M117.08,16.4c-.153,1.424.294,2.617,1.042,3.863,2.067,3.439,4.021,6.947,6.03,10.422.47.814.891,1.667.992,2.633.48.276,1.055.397,1.58.748.504,2.734,2.286,4.891,3.569,7.287,1.717,3.206,3.676,6.276,5.398,9.481.354.659.498,1.387.795,2.013.418.478,1.103.406,1.537.957.386,2.326,1.913,4.208,3.06,6.275,2.389,4.309,4.922,8.536,7.345,12.826.464.821.686,1.668.932,2.536"/>
      <path class="cls-1" d="M44.48,79.04c.233,1.984,1.478,3.504,2.415,5.151,2.33,4.097,4.708,8.167,7.079,12.24.654,1.124,1.249,2.259,1.605,3.423.445.509,1.13.438,1.578,1.005.285,2.222,1.777,4.015,2.829,6.007.432.818.88,1.651,1.427,2.404.335.46.363.935.347,1.45"/>
      <path class="cls-1" d="M12.68,24.92c1.585,3.117,3.479,6.058,5.185,9.106.545.973.986,1.956,1.334,3.024.323.146.691.289,1.016.38,1.35,3.566,3.53,6.578,5.317,9.803,1.363,2.46,2.766,4.9,4.204,7.317.453.762.594,1.592.825,2.409"/>
      <path class="cls-1" d="M168.68,71.36c-2.317-.242-4.426.669-6.598,1.208-2.731.677-5.435,1.467-8.17,2.117-1.181.281-2.167.879-3.232,1.355"/>
      <path class="cls-1" d="M73.52,2c-.218,1.584.326,2.941,1.054,4.334,1.947,3.725,4.118,7.34,5.666,11.266"/>
      <path class="cls-1" d="M151.64,49.64c-1.317-.16-2.5.424-3.713.748-2.446.653-4.895,1.306-7.328,2.009-.942.272-1.783.751-2.639,1.204"/>
      <path class="cls-1" d="M140.72,30.32c-2.384-.098-4.549.935-6.834,1.354-1.289.236-2.554.652-3.844.937-1.167.258-2.272.702-3.242,1.429"/>
      <path class="cls-1" d="M19.04,37.16c-3.741,1.877-7.83,2.75-11.758,4.086-.561.191-1.123.066-1.682.114"/>
    </g>
  </g>
</svg>