<?xml version="1.0" encoding="UTF-8"?>
<svg id="Layer_2" xmlns="http://www.w3.org/2000/svg" viewBox="0 0 228.99 235.082">
  <defs>
    <style>
      .cls-1 {
        fill: none;
        stroke: #000;
        stroke-linecap: round;
        stroke-linejoin: round;
        stroke-width: 3px;
      }
    </style>
  </defs>
  <g id="Layer_1-2" data-name="Layer_1">
    <path class="cls-1" d="M41.942,68.98c-4.358,5.239-8.032,11.02-10.828,17.289-7.978,17.887-8.666,41.754-.724,59.749,1.836,4.161,4.019,8.097,6.501,11.79"/>
    <path class="cls-1" d="M176.5,67.5c-4.945-7.282-10.607-14.079-17.607-19.152-33.406-24.211-89.127-12.818-116.951,20.632"/>
    <path class="cls-1" d="M36.891,157.808c27.419,40.793,91.415,51.958,129.609,9.692"/>
    <path class="cls-1" d="M42.964,70.031c10.854,12.95,29.654,1.832,37.93,25.153,3.49,9.836,1.028,27.304-2.219,37.102-8.13,24.532-25.929,12.619-40.634,24.549l-1.15.973"/>
    <path class="cls-1" d="M166.5,167.5c17.526-21.454,24.351-37.729,23.47-60.548-.546-14.138-4.576-26.286-13.47-39.452"/>
    <path class="cls-1" d="M176.5,67.5c-13.676,16.739-33.958,3.2-52.373,15.023-22.539,14.47-23.247,43.255-5.065,59.605,13.51,12.148,35.231,8.984,46.802,24.677l.636.696"/>
    <path class="cls-1" d="M13.245,227.755C7.16,152.655,2.124,76.843,1.5,1.5"/>
    <path class="cls-1" d="M224.647,215.68c-36.483,7.737-73.642,11.718-110.725,15.687-10.653,1.14-21.333,2.282-32.046,2.212-8.429-.055-16.833-.86-25.224-1.664-14.469-1.387-28.938-2.774-43.407-4.16"/>
    <path class="cls-1" d="M216.777,2.107c14.442,69.962,11.189,142.212,7.87,213.573"/>
    <path class="cls-1" d="M1.562,1.876c71.739.077,143.477.154,215.216.231"/>
  </g>
</svg>