<?xml version="1.0" encoding="UTF-8"?>
<svg id="Layer_2" xmlns="http://www.w3.org/2000/svg" viewBox="0 0 263.4 255.519">
  <defs>
    <style>
      .cls-1, .cls-2 {
        fill: none;
        stroke: #000;
        stroke-miterlimit: 10;
      }

      .cls-2 {
        stroke-width: 7px;
      }
    </style>
  </defs>
  <g id="Layer_1-2" data-name="Layer_1">
    <path class="cls-2" d="M109.143,125.58c14.541-1.15,29.078-4.822,43.541-2.921,12.9,1.697,25.059,7.891,34.521,16.82s16.277,20.505,20.197,32.911c2.253,7.136,3.581,14.71,2.518,22.116-.985,6.845-3.98,13.282-7.818,19.034-9.489,14.229-24.052,24.525-39.743,31.331-8.534,3.703-17.571,6.485-26.856,7.045-7.505.451-15.097-.569-22.215-2.986-10.196-3.464-19.299-9.732-26.968-17.293-7.049-6.954-13.039-15.149-16.447-24.447-6.693-18.257-2.691-39.179,6.906-56.094,6.993-12.323,18.365-22.723,32.225-25.662"/>
    <path class="cls-1" d="M140.843,11.852c11.425,11.155,36.461,19.099,49.483,28.648,14.294-15.956,20.397-26.725,37.764-39.274-1.072,20.544-5.417,32.685-13.89,51.428,16.225,3.933,31.856,16.056,48.077,19.989-15.062,11.763-33.644,6.394-52.418,9.962-3.477,15.535-5.66,40.854-4.54,56.732-10.174-13.873-21.651-34.565-24.542-51.524-19.52-1.172-34.664,5.604-53.355,11.338,7.401-11.55,17.219-21.543,28.644-29.143,1.055-.703,2.209-1.493,2.531-2.722.204-.768,8.46-8.217,8.291-8.994-4.371-20.497-20.154-26.335-26.044-46.445"/>
    <path class="cls-1" d="M7.98.84c33.987.247,67.957,2.353,101.714,6.303.456.052.938.117,1.285.417.547.464.551,1.289.512,2.005-1.919,35.446-3.837,70.891-5.756,106.333-.056,1.003-.152,2.11-.864,2.817-.625.621-1.558.777-2.431.894-32.373,4.41-65.292.92-97.582-4.085-.742-.117-1.541-.26-2.066-.794-.599-.612-.673-1.55-.708-2.405-.217-5.048-.404-10.096-.586-15.145C.336,65.003-.814,32.578,4.26.779c1.341.734,2.947.964,4.44.638"/>
  </g>
</svg>