<?xml version="1.0" encoding="UTF-8"?>
<svg id="Layer_2" xmlns="http://www.w3.org/2000/svg" viewBox="0 0 147.581 172.448">
  <defs>
    <style>
      .cls-1 {
        fill: #fcee21;
      }

      .cls-1, .cls-2 {
        stroke: #000;
        stroke-linecap: round;
        stroke-linejoin: round;
        stroke-width: 2px;
      }

      .cls-2 {
        fill: lime;
      }
    </style>
  </defs>
  <g id="Layer_1-2" data-name="Layer_1">
    <path class="cls-1" d="M146.281,121.36c-3.166-12.524-30.603-16.707-64.198-10.804-.422.815-.834,1.619-1.208,2.368-2.69,5.462-5.131,10.668-8.218,15.911-2.583,4.386-5.312,8.736-9.239,12.09-4.975,4.25-10.673,4.038-15.475-.17-3.854-3.377-6.63-7.636-9.641-11.706-.634-.857-1.924-2.806-2.913-4.321C12.78,134.983-1.262,147.868,1.3,158.006c3.622,14.328,39.013,17.74,79.048,7.621,40.035-10.12,69.554-29.939,65.932-44.267Z"/>
    <path class="cls-2" d="M100.572,37.631c-1.156-6.323-3.898-12.073-7.854-17.208-5.566-7.225-12.576-12.607-20.993-16.003-6.437-2.597-13.15-3.804-20.196-3.313-8.725.608-16.574,3.541-23.363,8.816-7.159,5.563-12.021,12.924-14.818,21.641-2.424,7.556-2.544,15.278-2.018,23.052.296,4.369.916,8.726,1.716,13.027.969,5.206,2.08,10.391,3.52,15.504,3.293,11.69,7.896,22.829,13.821,33.422,1.185,2.119,2.465,4.188,3.762,6.242.174.276.654,1.021,1.238,1.916.989,1.515,2.28,3.464,2.913,4.321,3.011,4.071,5.787,8.329,9.641,11.706,4.801,4.207,10.5,4.42,15.475.17,3.926-3.355,6.656-7.704,9.239-12.09,3.087-5.242,5.528-10.448,8.218-15.911.374-.749.787-1.553,1.208-2.368,1.351-2.61,2.806-5.339,3.498-6.803,4.172-8.825,7.421-18.005,10.464-27.245,2.042-6.201,3.627-12.588,4.545-19.064.932-6.576,1.18-13.261-.018-19.813ZM46.825,25.11c3.134-2.016,6.656-3.071,10.375-3.422h.189c1.331-.13,2.728-.055,3.952.249,8.88,2.207,12.649,9.31,12.652,16.374.003,6.956-2.653,12.914-7.775,17.512-4.143,3.72-9,5.808-14.88,4.62-8.672-1.751-14.498-9.115-14.299-17.976.167-7.415,3.501-13.314,9.786-17.357Z"/>
  </g>
</svg>