<?xml version="1.0" encoding="utf-8" ?>
<svg baseProfile="tiny" height="100%" shape-rendering="crispEdges" version="1.2" width="100%" xmlns="http://www.w3.org/2000/svg" xmlns:ev="http://www.w3.org/2001/xml-events" xmlns:xlink="http://www.w3.org/1999/xlink"><defs /><g><path d="M 40.832000732421875 126.12999725341797 L 39.296810150146484 126.10030364990234 L 37.82154846191406 126.03954315185547 L 36.407474517822266 125.94754791259766 L 35.055850982666016 125.82416534423828 L 33.76793670654297 125.66924285888672 L 32.54499435424805 125.48261260986328 L 31.388277053833008 125.26412963867188 L 30.299047470092773 125.01362609863281 L 29.278566360473633 124.73094940185547 L 28.328092575073242 124.41594696044922 L 27.448884963989258 124.06845092773438 L 26.6422061920166 123.68830871582031 L 25.909311294555664 123.27536010742188 L 25.251462936401367 122.82946014404297 L 24.669921875 122.35043334960938 L 24.165943145751953 121.838134765625 L 23.74079132080078 121.29239654541016 L 23.395723342895508 120.71307373046875 L 23.131999969482422 120.0999984741211 L 22.950149536132812 119.44478607177734 L 22.855606079101562 118.76428985595703 L 22.84723472595215 118.0591812133789 L 22.923898696899414 117.33013916015625 L 23.084463119506836 116.57783508300781 L 23.327791213989258 115.80293273925781 L 23.652746200561523 115.00611114501953 L 24.058195114135742 114.18804168701172 L 24.543001174926758 113.34939575195312 L 25.106027603149414 112.49083709716797 L 25.746139526367188 111.61305236816406 L 26.462202072143555 110.7166976928711 L 27.253076553344727 109.80245208740234 L 28.117630004882812 108.8709945678711 L 29.054725646972656 107.92298126220703 L 30.0632266998291 106.95909118652344 L 31.142000198364258 105.9800033569336 L 31.471778869628906 107.00148010253906 L 31.815340042114258 108.01730346679688 L 32.172584533691406 109.02737426757812 L 32.54341125488281 110.0316162109375 L 32.927730560302734 111.02994537353516 L 33.325439453125 112.02227783203125 L 33.73644256591797 113.0085220336914 L 34.16064453125 113.98859405517578 L 34.59794616699219 114.96241760253906 L 35.04825210571289 115.9299087524414 L 35.5114631652832 116.89097595214844 L 35.98748016357422 117.84554290771484 L 36.47621154785156 118.79351043701172 L 36.97755432128906 119.73481750488281 L 37.491416931152344 120.66935729980469 L 38.017696380615234 121.59706115722656 L 38.55630111694336 122.51783752441406 L 39.10713195800781 123.43160247802734 L 39.67008972167969 124.33827209472656 L 40.245079040527344 125.2377700805664 L 40.832000732421875 126.12999725341797" fill="#008000" stroke="none" stroke-width="2" /><path d="M 204.66200256347656 68.7699966430664 L 204.46058654785156 67.73135375976562 L 204.24508666992188 66.69722747802734 L 204.01559448242188 65.66769409179688 L 203.77223205566406 64.64285278320312 L 203.5150909423828 63.62279510498047 L 203.2442626953125 62.607601165771484 L 202.95985412597656 61.59736251831055 L 202.6619415283203 60.592166900634766 L 202.3506622314453 59.59210968017578 L 202.0260772705078 58.59727096557617 L 201.6883087158203 57.60774230957031 L 201.33743286132812 56.62361526489258 L 200.97357177734375 55.64497756958008 L 200.59681701660156 54.67191696166992 L 200.207275390625 53.704524993896484 L 199.80502319335938 52.74288558959961 L 199.39016723632812 51.787086486816406 L 198.9628143310547 50.837223052978516 L 198.5230712890625 49.89338302612305 L 198.07101440429688 48.955650329589844 L 197.60675048828125 48.02411651611328 L 197.13037109375 47.09886932373047 L 196.64199829101562 46.18000030517578 L 198.13339233398438 46.18376159667969 L 199.57257080078125 46.21512985229492 L 200.95846557617188 46.274227142333984 L 202.29005432128906 46.361175537109375 L 203.56625366210938 46.47610092163086 L 204.78602600097656 46.61912536621094 L 205.94830322265625 46.79037094116211 L 207.05201721191406 46.989959716796875 L 208.0961456298828 47.218017578125 L 209.07960510253906 47.474666595458984 L 210.0013427734375 47.76002883911133 L 210.8603057861328 48.07422637939453 L 211.6554412841797 48.41738510131836 L 212.3856964111328 48.78963088989258 L 213.05001831054688 49.191078186035156 L 213.6473388671875 49.621856689453125 L 214.17660522460938 50.082088470458984 L 214.63674926757812 50.571895599365234 L 215.02674865722656 51.091400146484375 L 215.3455047607422 51.64072799682617 L 215.5919952392578 52.220001220703125 L 215.7628936767578 52.82535171508789 L 215.85903930664062 53.45246124267578 L 215.8813018798828 54.10078811645508 L 215.83058166503906 54.769771575927734 L 215.707763671875 55.458866119384766 L 215.5137481689453 56.16752243041992 L 215.24940490722656 56.89518356323242 L 214.91563415527344 57.64130783081055 L 214.5133056640625 58.40533447265625 L 214.0433349609375 59.18672180175781 L 213.506591796875 59.98491287231445 L 212.90394592285156 60.79935836791992 L 212.236328125 61.62950897216797 L 211.5045928955078 62.474815368652344 L 210.7096405029297 63.33472442626953 L 209.85235595703125 64.20868682861328 L 208.93362426757812 65.09614562988281 L 207.95433044433594 65.9965591430664 L 206.91537475585938 66.90937042236328 L 205.817626953125 67.83403778076172 L 204.66200256347656 68.7699966430664 L 204.662 68.77" fill="#32CD32" stroke="none" stroke-width="2" /><path d="M 204.66200256347656 68.7699966430664 L 204.1339111328125 69.18720245361328 L 203.59478759765625 69.6064453125 L 203.0447235107422 70.02769470214844 L 202.48379516601562 70.45088958740234 L 201.91207885742188 70.87599182128906 L 201.32965087890625 71.30294799804688 L 200.736572265625 71.7317123413086 L 200.13294982910156 72.16223907470703 L 199.51882934570312 72.594482421875 L 198.89430236816406 73.02838897705078 L 198.2594451904297 73.46391296386719 L 197.6143341064453 73.90101623535156 L 196.9590606689453 74.33963775634766 L 196.29367065429688 74.77973937988281 L 195.61825561523438 75.22126770019531 L 194.93289184570312 75.6641845703125 L 194.2376708984375 76.10843658447266 L 193.5326385498047 76.55397033691406 L 192.81790161132812 77.00074768066406 L 192.09352111816406 77.44872283935547 L 191.3595733642578 77.89784240722656 L 190.6161346435547 78.34805297851562 L 189.86328125 78.79932403564453 L 189.10110473632812 79.25159454345703 L 188.3296661376953 79.70481872558594 L 187.54905700683594 80.1589584350586 L 186.75933837890625 80.61396026611328 L 185.96058654785156 81.06977081298828 L 185.15289306640625 81.52635192871094 L 184.33631896972656 81.98365020751953 L 183.5109405517578 82.44161987304688 L 182.67684936523438 82.90022277832031 L 181.83412170410156 83.3593978881836 L 180.98281860351562 83.81909942626953 L 180.12303161621094 84.27928924560547 L 179.25482177734375 84.73991394042969 L 178.37828063964844 85.200927734375 L 177.4934844970703 85.66227722167969 L 176.60049438476562 86.1239242553711 L 175.69940185546875 86.5858154296875 L 174.790283203125 87.04791259765625 L 173.87319946289062 87.5101547241211 L 172.94825744628906 87.97250366210938 L 172.0155029296875 88.43490600585938 L 171.07501220703125 88.8973159790039 L 170.12689208984375 89.35969543457031 L 169.17120361328125 89.82198333740234 L 168.2080078125 90.28414154052734 L 167.23741149902344 90.7461166381836 L 166.25946044921875 91.20787048339844 L 165.27426147460938 91.66934967041016 L 164.2818603515625 92.13050079345703 L 163.28236389160156 92.5912857055664 L 162.27581787109375 93.05165100097656 L 161.2623291015625 93.51155853271484 L 160.24195861816406 93.970947265625 L 159.21478271484375 94.42977905273438 L 158.18087768554688 94.88800811767578 L 157.14031982421875 95.3455810546875 L 156.09320068359375 95.80245208740234 L 155.03958129882812 96.25857543945312 L 153.9795379638672 96.71390533447266 L 152.91314697265625 97.16839599609375 L 151.8404998779297 97.62198638916016 L 150.76165771484375 98.07464599609375 L 149.67669677734375 98.52632141113281 L 148.58570861816406 98.97695922851562 L 147.48875427246094 99.42652130126953 L 146.38592529296875 99.87495422363281 L 145.27728271484375 100.32221221923828 L 144.1629180908203 100.76824951171875 L 143.0428924560547 101.21302032470703 L 141.91729736328125 101.6564712524414 L 140.7862091064453 102.09855651855469 L 139.64968872070312 102.53923797607422 L 138.5078125 102.97845458984375 L 137.36068725585938 103.41616821289062 L 136.20835876464844 103.85232543945312 L 135.0509033203125 104.2868881225586 L 133.888427734375 104.71979522705078 L 132.72097778320312 105.15100860595703 L 131.54864501953125 105.58048248291016 L 130.3715057373047 106.00816345214844 L 129.18963623046875 106.43401336669922 L 128.00311279296875 106.85797119140625 L 126.81199645996094 107.27999877929688 L 125.60833740234375 107.70259857177734 L 124.4070816040039 108.1207275390625 L 123.20831298828125 108.53438568115234 L 122.01212310791016 108.94355010986328 L 120.81861877441406 109.34821319580078 L 119.62787628173828 109.74836730957031 L 118.43998718261719 110.14399719238281 L 117.25505828857422 110.53508758544922 L 116.07316589355469 110.92163848876953 L 114.89441680908203 111.30362701416016 L 113.7188949584961 111.68104553222656 L 112.54668426513672 112.05388641357422 L 111.37789154052734 112.4221420288086 L 110.21260833740234 112.7857894897461 L 109.05091857910156 113.14482116699219 L 107.89291381835938 113.49922180175781 L 106.73869323730469 113.84899139404297 L 105.58834075927734 114.1941146850586 L 104.44195556640625 114.53457641601562 L 103.29962921142578 114.870361328125 L 102.16144561767578 115.20146942138672 L 101.02751159667969 115.52787780761719 L 99.89791107177734 115.8495864868164 L 98.7727279663086 116.16658020019531 L 97.65206909179688 116.47883605957031 L 96.53601837158203 116.78636169433594 L 95.42466735839844 117.08912658691406 L 94.318115234375 117.38713836669922 L 93.21644592285156 117.68037414550781 L 92.1197509765625 117.96881866455078 L 91.02812957763672 118.25247192382812 L 89.9416732788086 118.53131103515625 L 88.8604736328125 118.80533599853516 L 87.78461456298828 119.07453155517578 L 86.71419525146484 119.33888244628906 L 85.64930725097656 119.59838104248047 L 84.59004211425781 119.85301208496094 L 83.5364990234375 120.10276794433594 L 82.48875427246094 120.3476333618164 L 81.44691467285156 120.58760833740234 L 80.41105651855469 120.82266235351562 L 79.38129425048828 121.05279541015625 L 78.35770416259766 121.27799987792969 L 77.34037780761719 121.49826049804688 L 76.32941436767578 121.71356201171875 L 75.32490539550781 121.92389678955078 L 74.32693481445312 122.1292495727539 L 73.33560180664062 122.32962036132812 L 72.35099792480469 122.52497863769531 L 71.37321472167969 122.71533203125 L 70.40235137939453 122.9006576538086 L 69.43848419189453 123.08094787597656 L 68.48171997070312 123.25618743896484 L 67.53213500976562 123.42637634277344 L 66.58984375 123.59149169921875 L 65.65491485595703 123.75151824951172 L 64.72745513916016 123.90646362304688 L 63.80755615234375 124.0562973022461 L 62.89530563354492 124.20101928710938 L 61.99079513549805 124.34060668945312 L 61.0941162109375 124.47506713867188 L 60.20536804199219 124.6043701171875 L 59.32463455200195 124.728515625 L 58.4520149230957 124.84748077392578 L 57.58759307861328 124.96127319335938 L 56.731468200683594 125.06986236572266 L 55.883731842041016 125.17324829101562 L 55.044471740722656 125.27141571044922 L 54.21377944946289 125.36434936523438 L 53.391754150390625 125.4520492553711 L 52.57848358154297 125.53449249267578 L 51.7740592956543 125.6116714477539 L 50.97857666015625 125.68357849121094 L 50.19212341308594 125.75019836425781 L 49.414791107177734 125.8115234375 L 48.64667892456055 125.8675308227539 L 47.88787078857422 125.91822052001953 L 47.138465881347656 125.96358489990234 L 46.39855194091797 126.00360107421875 L 45.66822052001953 126.03826141357422 L 44.947566986083984 126.06755828857422 L 44.23667907714844 126.09147644042969 L 43.5356559753418 126.11000061035156 L 42.844581604003906 126.12313079833984 L 42.16355514526367 126.13084411621094 L 41.49266052246094 126.13314056396484 L 40.832000732421875 126.12999725341797 L 40.245079040527344 125.2377700805664 L 39.67008972167969 124.33827209472656 L 39.10713195800781 123.43160247802734 L 38.55630111694336 122.51783752441406 L 38.017696380615234 121.59706115722656 L 37.491416931152344 120.66935729980469 L 36.97755432128906 119.73481750488281 L 36.47621154785156 118.79351043701172 L 35.98748016357422 117.84554290771484 L 35.5114631652832 116.89097595214844 L 35.04825210571289 115.9299087524414 L 34.59794616699219 114.96241760253906 L 34.16064453125 113.98859405517578 L 33.73644256591797 113.0085220336914 L 33.325439453125 112.02227783203125 L 32.927730560302734 111.02994537353516 L 32.54341125488281 110.0316162109375 L 32.172584533691406 109.02737426757812 L 31.815340042114258 108.01730346679688 L 31.471778869628906 107.00148010253906 L 31.142000198364258 105.9800033569336 L 30.80828857421875 104.88923645019531 L 30.48981285095215 103.79203033447266 L 30.186803817749023 102.6884994506836 L 29.899499893188477 101.57875061035156 L 29.628131866455078 100.4629135131836 L 29.37293815612793 99.34109497070312 L 29.13414764404297 98.21341705322266 L 28.91200065612793 97.08000183105469 L 28.720834732055664 96.01616668701172 L 28.544334411621094 94.94779968261719 L 28.382610321044922 93.87498474121094 L 28.235769271850586 92.79779815673828 L 28.103919982910156 91.71632385253906 L 27.98717498779297 90.6306381225586 L 27.88564109802246 89.54084014892578 L 27.799428939819336 88.44699096679688 L 27.72864532470703 87.34918212890625 L 27.673402786254883 86.24749755859375 L 27.633806228637695 85.14202117919922 L 27.609970092773438 84.03282928466797 L 27.601999282836914 82.91999816894531 L 27.607460021972656 81.99848937988281 L 27.62380027770996 81.07938385009766 L 27.650964736938477 80.16275024414062 L 27.68889808654785 79.2486343383789 L 27.73754119873047 78.33708953857422 L 27.79684066772461 77.42816925048828 L 27.866737365722656 76.52191925048828 L 27.947174072265625 75.61840057373047 L 28.038097381591797 74.71766662597656 L 28.139446258544922 73.81975555419922 L 28.251169204711914 72.92473602294922 L 28.373205184936523 72.03264617919922 L 28.50550079345703 71.1435546875 L 28.64799690246582 70.25749969482422 L 28.800636291503906 69.3745346069336 L 28.96336555480957 68.49472045898438 L 29.136127471923828 67.61811065673828 L 29.318862915039062 66.74474334716797 L 29.511516571044922 65.87467956542969 L 29.714031219482422 65.00798034667969 L 29.92635154724121 64.1446762084961 L 30.148422241210938 63.28484344482422 L 30.38018226623535 62.42851638793945 L 30.621578216552734 61.57575988769531 L 30.8725528717041 60.72661590576172 L 31.13304901123047 59.88114547729492 L 31.40300941467285 59.03939437866211 L 31.6823787689209 58.201419830322266 L 31.971101760864258 57.367271423339844 L 32.26911926269531 56.53700256347656 L 32.57637405395508 55.710662841796875 L 32.8928108215332 54.888309478759766 L 33.21837615966797 54.06998825073242 L 33.553009033203125 53.255760192871094 L 33.89665222167969 52.44567108154297 L 34.24925231933594 51.639774322509766 L 34.610748291015625 50.8381233215332 L 34.9810905456543 50.040771484375 L 35.3602180480957 49.24776840209961 L 35.74807357788086 48.459171295166016 L 36.14459991455078 47.675025939941406 L 36.54974365234375 46.895389556884766 L 36.963443756103516 46.12030792236328 L 37.385650634765625 45.3498420715332 L 37.81629943847656 44.584041595458984 L 38.255340576171875 43.82295608520508 L 38.70271301269531 43.0666389465332 L 39.15835952758789 42.31514358520508 L 39.62222671508789 41.56852340698242 L 40.09425735473633 40.82682800292969 L 40.57439422607422 40.090110778808594 L 41.06258010864258 39.358421325683594 L 41.55875778198242 38.63181686401367 L 42.062870025634766 37.91035079956055 L 42.57486343383789 37.194068908691406 L 43.09468078613281 36.483028411865234 L 43.62226104736328 35.777278900146484 L 44.157554626464844 35.07687759399414 L 44.700496673583984 34.38187026977539 L 45.25103759765625 33.69231033325195 L 45.809120178222656 33.00825500488281 L 46.37468338012695 32.32975387573242 L 46.94767379760742 31.656858444213867 L 47.52803039550781 30.989622116088867 L 48.11570358276367 30.328096389770508 L 48.71063232421875 29.672334671020508 L 49.31276321411133 29.022388458251953 L 49.922035217285156 28.37830924987793 L 50.53839111328125 27.740150451660156 L 51.161781311035156 27.10796546936035 L 51.79214096069336 26.4818058013916 L 52.429420471191406 25.861722946166992 L 53.07355880737305 25.247770309448242 L 53.7244987487793 24.639999389648438 L 54.38218688964844 24.038463592529297 L 55.046566009521484 23.443214416503906 L 55.71757888793945 22.85430335998535 L 56.39516830444336 22.271785736083984 L 57.07927703857422 21.695711135864258 L 57.76984786987305 21.126131057739258 L 58.466827392578125 20.563100814819336 L 59.17015838623047 20.006671905517578 L 59.87977981567383 19.45689582824707 L 60.595638275146484 18.91382598876953 L 61.31768035888672 18.377513885498047 L 62.04584503173828 17.848011016845703 L 62.78007507324219 17.32537078857422 L 63.52031707763672 16.809646606445312 L 64.26651000976562 16.300888061523438 L 65.01860809326172 15.799150466918945 L 65.77653503417969 15.304484367370605 L 66.54025268554688 14.81694221496582 L 67.30970001220703 14.336577415466309 L 68.0848159790039 13.86344051361084 L 68.86554718017578 13.39758586883545 L 69.6518325805664 12.939064979553223 L 70.44361877441406 12.487929344177246 L 71.24085235595703 12.044232368469238 L 72.04346466064453 11.608025550842285 L 72.8514175415039 11.179362297058105 L 73.66464233398438 10.758295059204102 L 74.48308563232422 10.344874382019043 L 75.30668640136719 9.939154624938965 L 76.13539123535156 9.541186332702637 L 76.96914672851562 9.151023864746094 L 77.80789184570312 8.768717765808105 L 78.65157318115234 8.394320487976074 L 79.50012969970703 8.027885437011719 L 80.35350799560547 7.669465065002441 L 81.2116470336914 7.31911039352417 L 82.07450103759766 6.976874828338623 L 82.94200134277344 6.642810344696045 L 83.81410217285156 6.316969394683838 L 84.69073486328125 5.999403953552246 L 85.57184600830078 5.69016695022583 L 86.45738983154297 5.389310359954834 L 87.34729766845703 5.09688663482666 L 88.24151611328125 4.812947750091553 L 89.1399917602539 4.537546634674072 L 90.04266357421875 4.270735263824463 L 90.94947814941406 4.012566089630127 L 91.8603744506836 3.763091564178467 L 92.77530670166016 3.5223639011383057 L 93.69420623779297 3.290435314178467 L 94.61701965332031 3.0673582553863525 L 95.54369354248047 2.8531851768493652 L 96.47416687011719 2.647968292236328 L 97.40838623046875 2.4517600536346436 L 98.3462905883789 2.2646126747131348 L 99.28782653808594 2.086578369140625 L 100.23294067382812 1.9177099466323853 L 101.18157958984375 1.7580593824386597 L 102.1336669921875 1.607679009437561 L 103.08917236328125 1.4666212797164917 L 104.04801940917969 1.334938645362854 L 105.01016235351562 1.2126832008361816 L 105.97553253173828 1.099907398223877 L 106.944091796875 0.9966635704040527 L 107.91576385498047 0.9030041098594666 L 108.89051055908203 0.8189812898635864 L 109.86825561523438 0.7446475028991699 L 110.84896087646484 0.6800550818443298 L 111.83255767822266 0.625256359577179 L 112.8189926147461 0.5803036093711853 L 113.80821228027344 0.5452492833137512 L 114.80016326904297 0.5201457142829895 L 115.7947769165039 0.5050451755523682 L 116.79199981689453 0.5 L 117.8476333618164 0.5056555867195129 L 118.90034484863281 0.5225811004638672 L 119.9500503540039 0.550714373588562 L 120.99668884277344 0.589993417263031 L 122.04019927978516 0.640356183052063 L 123.08051300048828 0.7017406225204468 L 124.1175537109375 0.7740846872329712 L 125.1512680053711 0.857326328754425 L 126.18157958984375 0.9514035582542419 L 127.20841979980469 1.056254267692566 L 128.23171997070312 1.171816349029541 L 129.2514190673828 1.2980279922485352 L 130.2674560546875 1.4348268508911133 L 131.27975463867188 1.5821510553359985 L 132.28823852539062 1.7399386167526245 L 133.29286193847656 1.9081273078918457 L 134.2935333251953 2.0866551399230957 L 135.2902069091797 2.2754602432250977 L 136.28280639648438 2.474480390548706 L 137.27127075195312 2.6836533546447754 L 138.25552368164062 2.9029176235198975 L 139.23548889160156 3.1322107315063477 L 140.21112060546875 3.3714706897735596 L 141.18235778808594 3.620635509490967 L 142.1490936279297 3.879643201828003 L 143.11129760742188 4.148431777954102 L 144.0688934326172 4.426939010620117 L 145.0218048095703 4.715102672576904 L 145.969970703125 5.012861251831055 L 146.91331481933594 5.320152282714844 L 147.85179138183594 5.636913776397705 L 148.7853240966797 5.9630842208862305 L 149.7138214111328 6.298600673675537 L 150.6372528076172 6.643401622772217 L 151.55552673339844 6.997425079345703 L 152.46859741210938 7.3606085777282715 L 153.37637329101562 7.732890605926514 L 154.27879333496094 8.114209175109863 L 155.17581176757812 8.504501342773438 L 156.0673370361328 8.903705596923828 L 156.95330810546875 9.311759948730469 L 157.83364868164062 9.72860336303711 L 158.70831298828125 10.15417194366455 L 159.5772247314453 10.588403701782227 L 160.4403076171875 11.031238555908203 L 161.29751586914062 11.482612609863281 L 162.1487579345703 11.942464828491211 L 162.9939727783203 12.410733222961426 L 163.83309936523438 12.887354850769043 L 164.6660614013672 13.372267723083496 L 165.49281311035156 13.865410804748535 L 166.31326293945312 14.366722106933594 L 167.1273651123047 14.876137733459473 L 167.93502807617188 15.393597602844238 L 168.73619079589844 15.919038772583008 L 169.5308074951172 16.4523983001709 L 170.31878662109375 16.993616104125977 L 171.10008239746094 17.542631149291992 L 171.87460327148438 18.099376678466797 L 172.6422882080078 18.663793563842773 L 173.40309143066406 19.235820770263672 L 174.15692138671875 19.81539535522461 L 174.90371704101562 20.402454376220703 L 175.64341735839844 20.996936798095703 L 176.37594604492188 21.598779678344727 L 177.10125732421875 22.207921981811523 L 177.81924438476562 22.82430076599121 L 178.52987670898438 23.44785499572754 L 179.2330780029297 24.078521728515625 L 179.92877197265625 24.71623992919922 L 180.61688232421875 25.360944747924805 L 181.29737854003906 26.0125789642334 L 181.97015380859375 26.67107582092285 L 182.63516235351562 27.336376190185547 L 183.29234313964844 28.0084171295166 L 183.9416046142578 28.687135696411133 L 184.5828857421875 29.372472763061523 L 185.2161407470703 30.064361572265625 L 185.84129333496094 30.762744903564453 L 186.458251953125 31.467557907104492 L 187.06698608398438 32.17873764038086 L 187.6674041748047 32.89622497558594 L 188.2594451904297 33.619956970214844 L 188.84303283691406 34.34987258911133 L 189.41812133789062 35.08590316772461 L 189.984619140625 35.82799530029297 L 190.54248046875 36.57608413696289 L 191.0916290283203 37.33010482788086 L 191.6320037841797 38.09000015258789 L 192.3107452392578 39.06966781616211 L 192.97450256347656 40.05859375 L 193.6232452392578 41.05665969848633 L 194.2570037841797 42.063751220703125 L 194.87574768066406 43.07974624633789 L 195.47950744628906 44.104530334472656 L 196.06825256347656 45.13798904418945 L 196.64199829101562 46.18000030517578 L 197.13037109375 47.09886932373047 L 197.60675048828125 48.02411651611328 L 198.07101440429688 48.955650329589844 L 198.5230712890625 49.89338302612305 L 198.9628143310547 50.837223052978516 L 199.39016723632812 51.787086486816406 L 199.80502319335938 52.74288558959961 L 200.207275390625 53.704524993896484 L 200.59681701660156 54.67191696166992 L 200.97357177734375 55.64497756958008 L 201.33743286132812 56.62361526489258 L 201.6883087158203 57.60774230957031 L 202.0260772705078 58.59727096557617 L 202.3506622314453 59.59210968017578 L 202.6619415283203 60.592166900634766 L 202.95985412597656 61.59736251831055 L 203.2442626953125 62.607601165771484 L 203.5150909423828 63.62279510498047 L 203.77223205566406 64.64285278320312 L 204.01559448242188 65.66769409179688 L 204.24508666992188 66.69722747802734 L 204.46058654785156 67.73135375976562 L 204.66200256347656 68.7699966430664 L 204.662 68.77" fill="#CD853F" stroke="none" stroke-width="2" /><path d="M 205.9219970703125 85.76000213623047 L 205.8828125 86.67975616455078 L 205.83277893066406 87.5969009399414 L 205.77197265625 88.51139068603516 L 205.700439453125 89.42315673828125 L 205.6182403564453 90.33216094970703 L 205.5254364013672 91.23834228515625 L 205.4220733642578 92.14164733886719 L 205.30821228027344 93.04202270507812 L 205.18392944335938 93.93941497802734 L 205.0492706298828 94.83377838134766 L 204.90428161621094 95.72504425048828 L 204.74903869628906 96.61317443847656 L 204.5835723876953 97.49810791015625 L 204.40797424316406 98.37979888916016 L 204.2222900390625 99.2581787109375 L 204.0265655517578 100.13320922851562 L 203.8208770751953 101.00482940673828 L 203.60525512695312 101.87298583984375 L 203.37979125976562 102.73763275146484 L 203.14451599121094 103.59870910644531 L 202.89950561523438 104.45616149902344 L 202.64480590820312 105.3099365234375 L 202.38047790527344 106.15998077392578 L 202.10658264160156 107.0062484741211 L 201.82318115234375 107.84867858886719 L 201.53030395507812 108.68722534179688 L 201.22804260253906 109.52182006835938 L 200.91644287109375 110.35243225097656 L 200.59556579589844 111.17898559570312 L 200.2654571533203 112.0014419555664 L 199.92617797851562 112.81974029541016 L 199.5778045654297 113.63382720947266 L 199.22036743164062 114.44365692138672 L 198.85394287109375 115.2491683959961 L 198.47857666015625 116.05030822753906 L 198.09434509277344 116.84703063964844 L 197.70127868652344 117.63927459716797 L 197.29946899414062 118.42699432373047 L 196.88893127441406 119.21012878417969 L 196.46975708007812 119.9886245727539 L 196.0419921875 120.76243591308594 L 195.60569763183594 121.53150177001953 L 195.1609344482422 122.2957763671875 L 194.70774841308594 123.0551986694336 L 194.24620056152344 123.80972290039062 L 193.7763671875 124.55928039550781 L 193.29827880859375 125.30384063720703 L 192.81199645996094 126.0433349609375 L 192.31759643554688 126.7777099609375 L 191.81512451171875 127.50691986083984 L 191.3046417236328 128.2309112548828 L 190.7862091064453 128.94961547851562 L 190.25987243652344 129.66299438476562 L 189.72569274902344 130.37100219726562 L 189.18373107910156 131.0735626220703 L 188.63404846191406 131.7706298828125 L 188.0767059326172 132.462158203125 L 187.51174926757812 133.14810180664062 L 186.93923950195312 133.82838439941406 L 186.35923767089844 134.5029754638672 L 185.7718048095703 135.1717987060547 L 185.17698669433594 135.83480834960938 L 184.57485961914062 136.49197387695312 L 183.9654541015625 137.14320373535156 L 183.34886169433594 137.78848266601562 L 182.72511291503906 138.427734375 L 182.09426879882812 139.06089782714844 L 181.45639038085938 139.6879425048828 L 180.81155395507812 140.30880737304688 L 180.1597900390625 140.92343139648438 L 179.5011749267578 141.53175354003906 L 178.83575439453125 142.1337432861328 L 178.16358947753906 142.72933959960938 L 177.4847412109375 143.31849670410156 L 176.79925537109375 143.90113830566406 L 176.10720825195312 144.4772186279297 L 175.4086456298828 145.04669189453125 L 174.70362854003906 145.60951232910156 L 173.99221801757812 146.1656036376953 L 173.27447509765625 146.71493530273438 L 172.55043029785156 147.2574462890625 L 171.82017517089844 147.79307556152344 L 171.08375549316406 148.32177734375 L 170.34121704101562 148.84349060058594 L 169.59263610839844 149.35816955566406 L 168.8380584716797 149.86575317382812 L 168.07754516601562 150.3662109375 L 167.3111572265625 150.85946655273438 L 166.5389404296875 151.345458984375 L 165.76097106933594 151.82415771484375 L 164.97727966308594 152.29550170898438 L 164.18795776367188 152.75942993164062 L 163.39303588867188 153.2158966064453 L 162.59259033203125 153.66485595703125 L 161.7866668701172 154.1062469482422 L 160.97532653808594 154.5399932861328 L 160.15863037109375 154.96607971191406 L 159.33663940429688 155.38442993164062 L 158.5093994140625 155.79501342773438 L 157.67697143554688 156.19773864746094 L 156.83941650390625 156.59259033203125 L 155.9967803955078 156.9794921875 L 155.14913940429688 157.35838317871094 L 154.2965545654297 157.729248046875 L 153.43905639648438 158.0919952392578 L 152.5767364501953 158.44659423828125 L 151.70962524414062 158.79296875 L 150.83778381347656 159.13108825683594 L 149.96127319335938 159.4608917236328 L 149.08016967773438 159.78233337402344 L 148.1945037841797 160.0953369140625 L 147.30435180664062 160.39987182617188 L 146.40975952148438 160.6958770751953 L 145.5107879638672 160.98330688476562 L 144.6074981689453 161.2620849609375 L 143.69993591308594 161.5321807861328 L 142.78817749023438 161.7935333251953 L 141.8722686767578 162.04608154296875 L 140.9522705078125 162.28977966308594 L 140.0282440185547 162.5245819091797 L 139.10025024414062 162.75042724609375 L 138.1683349609375 162.96725463867188 L 137.23255920410156 163.17503356933594 L 136.29296875 163.37367248535156 L 135.3496551513672 163.5631561279297 L 134.40264892578125 163.74342346191406 L 133.45201110839844 163.91439819335938 L 132.497802734375 164.0760498046875 L 131.5400848388672 164.2283172607422 L 130.5789031982422 164.3711395263672 L 129.6143341064453 164.50448608398438 L 128.64642333984375 164.62828063964844 L 127.67523193359375 164.7424774169922 L 126.70081329345703 164.84703063964844 L 125.72323608398438 164.94187927246094 L 124.74253845214844 165.02696228027344 L 123.75879669189453 165.10223388671875 L 122.77205657958984 165.1676483154297 L 121.78238677978516 165.22314453125 L 120.78983306884766 165.2686767578125 L 119.79446411132812 165.30416870117188 L 118.79632568359375 165.32958984375 L 117.79548645019531 165.3448944091797 L 116.79199981689453 165.35000610351562 L 115.73387145996094 165.3443145751953 L 114.6786880493164 165.32730102539062 L 113.62652587890625 165.2990264892578 L 112.57744598388672 165.25955200195312 L 111.5315170288086 165.20895385742188 L 110.48880767822266 165.1472625732422 L 109.44939422607422 165.07456970214844 L 108.413330078125 164.9909210205078 L 107.38069152832031 164.89639282226562 L 106.3515396118164 164.79103088378906 L 105.3259506225586 164.67491149902344 L 104.30399322509766 164.548095703125 L 103.28572082519531 164.41065979003906 L 102.2712173461914 164.26263427734375 L 101.26053619384766 164.10411071777344 L 100.25375366210938 163.9351348876953 L 99.25093841552734 163.75576782226562 L 98.25215911865234 163.56610107421875 L 97.2574691772461 163.3661651611328 L 96.26696014404297 163.15602111816406 L 95.28067779541016 162.93576049804688 L 94.29869842529297 162.70542907714844 L 93.32109069824219 162.46510314941406 L 92.3479232788086 162.21481323242188 L 91.37926483154297 161.95465087890625 L 90.41517639160156 161.68467712402344 L 89.45573425292969 161.40493774414062 L 88.50099182128906 161.11550903320312 L 87.55103302001953 160.81646728515625 L 86.60591888427734 160.50784301757812 L 85.66571807861328 160.18971252441406 L 84.7304916381836 159.86215209960938 L 83.8003158569336 159.52520751953125 L 82.87525177001953 159.178955078125 L 81.95537567138672 158.8234405517578 L 81.0407485961914 158.45875549316406 L 80.13143920898438 158.08493041992188 L 79.2275161743164 157.70204162597656 L 78.32904815673828 157.31015014648438 L 77.43610382080078 156.90933227539062 L 76.54874420166016 156.4996337890625 L 75.66703796386719 156.08111572265625 L 74.79106140136719 155.6538543701172 L 73.9208755493164 155.21791076660156 L 73.05654907226562 154.77334594726562 L 72.19815063476562 154.32020568847656 L 71.34574890136719 153.85858154296875 L 70.49940490722656 153.38851928710938 L 69.65919494628906 152.9100799560547 L 68.82518768310547 152.42333984375 L 67.9974365234375 151.9283447265625 L 67.176025390625 151.4251708984375 L 66.36101531982422 150.91387939453125 L 65.5524673461914 150.39453125 L 64.7504653930664 149.8671875 L 63.95505905151367 149.3319091796875 L 63.16632843017578 148.78875732421875 L 62.384334564208984 148.23780822753906 L 61.609153747558594 147.67910766601562 L 60.840843200683594 147.11273193359375 L 60.07947540283203 146.5387420654297 L 59.32511901855469 145.95718383789062 L 58.57783889770508 145.36814880371094 L 57.83770751953125 144.77166748046875 L 57.10478591918945 144.16783142089844 L 56.379146575927734 143.55670166015625 L 55.660858154296875 142.9383087158203 L 54.949981689453125 142.31275939941406 L 54.24658966064453 141.68008422851562 L 53.550750732421875 141.0403594970703 L 52.86253356933594 140.39364624023438 L 52.18199920654297 139.74000549316406 L 53.0170783996582 139.63116455078125 L 53.857093811035156 139.51876831054688 L 54.70200729370117 139.40277099609375 L 55.5517692565918 139.28321838378906 L 56.40633773803711 139.1600799560547 L 57.26567077636719 139.03338623046875 L 58.12971878051758 138.90313720703125 L 58.998443603515625 138.76931762695312 L 59.871795654296875 138.63194274902344 L 60.74972915649414 138.49102783203125 L 61.632205963134766 138.3465576171875 L 62.51918029785156 138.19854736328125 L 63.410606384277344 138.04701232910156 L 64.30643463134766 137.8919219970703 L 65.20662689208984 137.73330688476562 L 66.11114501953125 137.5711669921875 L 67.01992797851562 137.40550231933594 L 67.93294525146484 137.236328125 L 68.85015106201172 137.06362915039062 L 69.77149200439453 136.88742065429688 L 70.69692993164062 136.7076873779297 L 71.62641906738281 136.52447509765625 L 72.55992126464844 136.33775329589844 L 73.49738311767578 136.14752197265625 L 74.43876647949219 135.9538116455078 L 75.38402557373047 135.75660705566406 L 76.33311462402344 135.55592346191406 L 77.2859878540039 135.3517608642578 L 78.24259948730469 135.1441192626953 L 79.20291137695312 134.93299865722656 L 80.16687774658203 134.71839904785156 L 81.13445281982422 134.50035095214844 L 82.1055908203125 134.27883911132812 L 83.08024597167969 134.05386352539062 L 84.05838012695312 133.825439453125 L 85.0399398803711 133.5935516357422 L 86.02489471435547 133.3582305908203 L 87.01318359375 133.1194610595703 L 88.00477600097656 132.87725830078125 L 88.99961853027344 132.63160705566406 L 89.99767303466797 132.38253784179688 L 90.99889373779297 132.13003540039062 L 92.00323486328125 131.87411499023438 L 93.01065063476562 131.61476135253906 L 94.0210952758789 131.3520050048828 L 95.03453063964844 131.08583068847656 L 96.0509033203125 130.81625366210938 L 97.07018280029297 130.5432586669922 L 98.0923080444336 130.26687622070312 L 99.11724853515625 129.98709106445312 L 100.14495849609375 129.70391845703125 L 101.17538452148438 129.4173583984375 L 102.20848846435547 129.12741088867188 L 103.24422454833984 128.83407592773438 L 104.28254699707031 128.53736877441406 L 105.32341003417969 128.23728942871094 L 106.36678314208984 127.93383026123047 L 107.41259765625 127.62701416015625 L 108.46083068847656 127.31683349609375 L 109.51142883300781 127.0032958984375 L 110.5643539428711 126.6864013671875 L 111.61955261230469 126.36615753173828 L 112.6769790649414 126.04256439208984 L 113.7365951538086 125.71562957763672 L 114.7983627319336 125.38536071777344 L 115.86222839355469 125.05175018310547 L 116.92814636230469 124.71481323242188 L 117.99607849121094 124.37454223632812 L 119.06597137451172 124.03095245361328 L 120.1377944946289 123.68404388427734 L 121.21148681640625 123.33381652832031 L 122.28701782226562 122.98027801513672 L 123.36434173583984 122.62342834472656 L 124.44340515136719 122.26327514648438 L 125.524169921875 121.89981842041016 L 126.60659790039062 121.53307342529297 L 127.69062805175781 121.16302490234375 L 128.77622985839844 120.7896957397461 L 129.8633575439453 120.41307830810547 L 130.95196533203125 120.0331802368164 L 132.04200744628906 119.6500015258789 L 133.127197265625 119.26592254638672 L 134.20924377441406 118.88021087646484 L 135.28811645507812 118.49288940429688 L 136.36378479003906 118.10398864746094 L 137.4362030029297 117.71351623535156 L 138.5053253173828 117.3215103149414 L 139.5711212158203 116.92798614501953 L 140.63357543945312 116.5329818725586 L 141.69261169433594 116.13650512695312 L 142.74822998046875 115.73859405517578 L 143.8003692626953 115.33926391601562 L 144.84901428222656 114.93854522705078 L 145.89410400390625 114.53646087646484 L 146.9356231689453 114.13302612304688 L 147.9735107421875 113.72827911376953 L 149.0077667236328 113.3222427368164 L 150.03831481933594 112.91493225097656 L 151.0651397705078 112.5063705444336 L 152.0882110595703 112.09659576416016 L 153.1074676513672 111.68562316894531 L 154.12289428710938 111.27348327636719 L 155.1344451904297 110.86019134521484 L 156.14208984375 110.44577026367188 L 157.14578247070312 110.03025817871094 L 158.1455078125 109.6136703491211 L 159.1411895751953 109.19603729248047 L 160.13282775878906 108.7773666381836 L 161.12037658691406 108.35770416259766 L 162.10379028320312 107.93706512451172 L 163.08303833007812 107.51547241210938 L 164.05807495117188 107.09294891357422 L 165.0288848876953 106.66951751708984 L 165.9954071044922 106.2452163696289 L 166.95761108398438 105.82005310058594 L 167.9154815673828 105.3940658569336 L 168.86895751953125 104.9672622680664 L 169.81800842285156 104.53968811035156 L 170.76258850097656 104.1113510131836 L 171.7026824951172 103.68228149414062 L 172.63824462890625 103.25250244140625 L 173.56924438476562 102.82203674316406 L 174.49562072753906 102.39091491699219 L 175.4173583984375 101.95915222167969 L 176.3344268798828 101.52678680419922 L 177.24676513671875 101.09382629394531 L 178.15435791015625 100.66030883789062 L 179.05714416503906 100.22624969482422 L 179.9551239013672 99.79167938232422 L 180.8482208251953 99.35662078857422 L 181.73643493652344 98.92109680175781 L 182.6197052001953 98.4851303100586 L 183.4980010986328 98.04874420166016 L 184.37127685546875 97.61196899414062 L 185.23951721191406 97.1748275756836 L 186.10267639160156 96.73734283447266 L 186.96070861816406 96.2995376586914 L 187.81358337402344 95.86144256591797 L 188.66127014160156 95.4230728149414 L 189.50372314453125 94.98445892333984 L 190.34091186523438 94.54562377929688 L 191.17279052734375 94.1065902709961 L 191.99932861328125 93.66738891601562 L 192.82049560546875 93.22803497314453 L 193.63624572753906 92.78855895996094 L 194.446533203125 92.34898376464844 L 195.2513427734375 91.90933227539062 L 196.05064392089844 91.46963500976562 L 196.8443603515625 91.0299072265625 L 197.6324920654297 90.59017181396484 L 198.4149932861328 90.15046691894531 L 199.1918182373047 89.71080780029297 L 199.9629364013672 89.2712173461914 L 200.72830200195312 88.83172607421875 L 201.48789978027344 88.3923568725586 L 202.24166870117188 87.953125 L 202.98959350585938 87.51406860351562 L 203.73162841796875 87.0751953125 L 204.4677276611328 86.63655090332031 L 205.19786071777344 86.1981430053711 L 205.9219970703125 85.76000213623047" fill="#EEE8AA" stroke="none" stroke-width="2" /><path d="M 205.9219970703125 85.76000213623047 L 205.19786071777344 86.1981430053711 L 204.4677276611328 86.63655090332031 L 203.73162841796875 87.0751953125 L 202.98959350585938 87.51406860351562 L 202.24166870117188 87.953125 L 201.48789978027344 88.3923568725586 L 200.72830200195312 88.83172607421875 L 199.9629364013672 89.2712173461914 L 199.1918182373047 89.71080780029297 L 198.4149932861328 90.15046691894531 L 197.6324920654297 90.59017181396484 L 196.8443603515625 91.0299072265625 L 196.05064392089844 91.46963500976562 L 195.2513427734375 91.90933227539062 L 194.446533203125 92.34898376464844 L 193.63624572753906 92.78855895996094 L 192.82049560546875 93.22803497314453 L 191.99932861328125 93.66738891601562 L 191.17279052734375 94.1065902709961 L 190.34091186523438 94.54562377929688 L 189.50372314453125 94.98445892333984 L 188.66127014160156 95.4230728149414 L 187.81358337402344 95.86144256591797 L 186.96070861816406 96.2995376586914 L 186.10267639160156 96.73734283447266 L 185.23951721191406 97.1748275756836 L 184.37127685546875 97.61196899414062 L 183.4980010986328 98.04874420166016 L 182.6197052001953 98.4851303100586 L 181.73643493652344 98.92109680175781 L 180.8482208251953 99.35662078857422 L 179.9551239013672 99.79167938232422 L 179.05714416503906 100.22624969482422 L 178.15435791015625 100.66030883789062 L 177.24676513671875 101.09382629394531 L 176.3344268798828 101.52678680419922 L 175.4173583984375 101.95915222167969 L 174.49562072753906 102.39091491699219 L 173.56924438476562 102.82203674316406 L 172.63824462890625 103.25250244140625 L 171.7026824951172 103.68228149414062 L 170.76258850097656 104.1113510131836 L 169.81800842285156 104.53968811035156 L 168.86895751953125 104.9672622680664 L 167.9154815673828 105.3940658569336 L 166.95761108398438 105.82005310058594 L 165.9954071044922 106.2452163696289 L 165.0288848876953 106.66951751708984 L 164.05807495117188 107.09294891357422 L 163.08303833007812 107.51547241210938 L 162.10379028320312 107.93706512451172 L 161.12037658691406 108.35770416259766 L 160.13282775878906 108.7773666381836 L 159.1411895751953 109.19603729248047 L 158.1455078125 109.6136703491211 L 157.14578247070312 110.03025817871094 L 156.14208984375 110.44577026367188 L 155.1344451904297 110.86019134521484 L 154.12289428710938 111.27348327636719 L 153.1074676513672 111.68562316894531 L 152.0882110595703 112.09659576416016 L 151.0651397705078 112.5063705444336 L 150.03831481933594 112.91493225097656 L 149.0077667236328 113.3222427368164 L 147.9735107421875 113.72827911376953 L 146.9356231689453 114.13302612304688 L 145.89410400390625 114.53646087646484 L 144.84901428222656 114.93854522705078 L 143.8003692626953 115.33926391601562 L 142.74822998046875 115.73859405517578 L 141.69261169433594 116.13650512695312 L 140.63357543945312 116.5329818725586 L 139.5711212158203 116.92798614501953 L 138.5053253173828 117.3215103149414 L 137.4362030029297 117.71351623535156 L 136.36378479003906 118.10398864746094 L 135.28811645507812 118.49288940429688 L 134.20924377441406 118.88021087646484 L 133.127197265625 119.26592254638672 L 132.04200744628906 119.6500015258789 L 130.95196533203125 120.0331802368164 L 129.8633575439453 120.41307830810547 L 128.77622985839844 120.7896957397461 L 127.69062805175781 121.16302490234375 L 126.60659790039062 121.53307342529297 L 125.524169921875 121.89981842041016 L 124.44340515136719 122.26327514648438 L 123.36434173583984 122.62342834472656 L 122.28701782226562 122.98027801513672 L 121.21148681640625 123.33381652832031 L 120.1377944946289 123.68404388427734 L 119.06597137451172 124.03095245361328 L 117.99607849121094 124.37454223632812 L 116.92814636230469 124.71481323242188 L 115.86222839355469 125.05175018310547 L 114.7983627319336 125.38536071777344 L 113.7365951538086 125.71562957763672 L 112.6769790649414 126.04256439208984 L 111.61955261230469 126.36615753173828 L 110.5643539428711 126.6864013671875 L 109.51142883300781 127.0032958984375 L 108.46083068847656 127.31683349609375 L 107.41259765625 127.62701416015625 L 106.36678314208984 127.93383026123047 L 105.32341003417969 128.23728942871094 L 104.28254699707031 128.53736877441406 L 103.24422454833984 128.83407592773438 L 102.20848846435547 129.12741088867188 L 101.17538452148438 129.4173583984375 L 100.14495849609375 129.70391845703125 L 99.11724853515625 129.98709106445312 L 98.0923080444336 130.26687622070312 L 97.07018280029297 130.5432586669922 L 96.0509033203125 130.81625366210938 L 95.03453063964844 131.08583068847656 L 94.0210952758789 131.3520050048828 L 93.01065063476562 131.61476135253906 L 92.00323486328125 131.87411499023438 L 90.99889373779297 132.13003540039062 L 89.99767303466797 132.38253784179688 L 88.99961853027344 132.63160705566406 L 88.00477600097656 132.87725830078125 L 87.01318359375 133.1194610595703 L 86.02489471435547 133.3582305908203 L 85.0399398803711 133.5935516357422 L 84.05838012695312 133.825439453125 L 83.08024597167969 134.05386352539062 L 82.1055908203125 134.27883911132812 L 81.13445281982422 134.50035095214844 L 80.16687774658203 134.71839904785156 L 79.20291137695312 134.93299865722656 L 78.24259948730469 135.1441192626953 L 77.2859878540039 135.3517608642578 L 76.33311462402344 135.55592346191406 L 75.38402557373047 135.75660705566406 L 74.43876647949219 135.9538116455078 L 73.49738311767578 136.14752197265625 L 72.55992126464844 136.33775329589844 L 71.62641906738281 136.52447509765625 L 70.69692993164062 136.7076873779297 L 69.77149200439453 136.88742065429688 L 68.85015106201172 137.06362915039062 L 67.93294525146484 137.236328125 L 67.01992797851562 137.40550231933594 L 66.11114501953125 137.5711669921875 L 65.20662689208984 137.73330688476562 L 64.30643463134766 137.8919219970703 L 63.410606384277344 138.04701232910156 L 62.51918029785156 138.19854736328125 L 61.632205963134766 138.3465576171875 L 60.74972915649414 138.49102783203125 L 59.871795654296875 138.63194274902344 L 58.998443603515625 138.76931762695312 L 58.12971878051758 138.90313720703125 L 57.26567077636719 139.03338623046875 L 56.40633773803711 139.1600799560547 L 55.5517692565918 139.28321838378906 L 54.70200729370117 139.40277099609375 L 53.857093811035156 139.51876831054688 L 53.0170783996582 139.63116455078125 L 52.18199920654297 139.74000549316406 L 50.70469284057617 139.92535400390625 L 49.24346160888672 140.0992889404297 L 47.798561096191406 140.26177978515625 L 46.3702392578125 140.41281127929688 L 44.9587516784668 140.55235290527344 L 43.56434631347656 140.68038940429688 L 42.187278747558594 140.79689025878906 L 40.82779312133789 140.90184020996094 L 39.486148834228516 140.99520874023438 L 38.16259002685547 141.0769805908203 L 36.85737609863281 141.14712524414062 L 35.57075119018555 141.2056121826172 L 34.30297088623047 141.25244140625 L 33.054283142089844 141.28758239746094 L 31.82494354248047 141.3109893798828 L 30.615201950073242 141.3226776123047 L 29.425308227539062 141.3225860595703 L 28.25551414489746 141.3107147216797 L 27.1060733795166 141.2870330810547 L 25.977235794067383 141.25152587890625 L 24.869253158569336 141.20416259765625 L 23.78237533569336 141.14492797851562 L 22.716856002807617 141.0737762451172 L 21.67294692993164 140.99070739746094 L 20.650896072387695 140.8957061767578 L 19.650957107543945 140.78872680664062 L 18.673381805419922 140.66973876953125 L 17.718421936035156 140.53875732421875 L 16.786327362060547 140.39573669433594 L 15.877348899841309 140.2406463623047 L 14.991740226745605 140.07347106933594 L 14.129752159118652 139.89419555664062 L 13.291635513305664 139.70277404785156 L 12.477642059326172 139.49920654296875 L 11.68802261352539 139.28347778320312 L 10.923028945922852 139.05552673339844 L 10.182912826538086 138.81536865234375 L 9.467926025390625 138.56295776367188 L 8.778318405151367 138.2982940673828 L 8.11434268951416 138.0213165283203 L 7.476250171661377 137.73204040527344 L 6.864291667938232 137.430419921875 L 6.278719425201416 137.11643981933594 L 5.719783782958984 136.79006958007812 L 5.187736988067627 136.45130920410156 L 4.682830333709717 136.10011291503906 L 4.205314636230469 135.7364501953125 L 3.7554421424865723 135.36033630371094 L 3.3334639072418213 134.97171020507812 L 2.939631223678589 134.570556640625 L 2.574195623397827 134.1568603515625 L 2.2374086380004883 133.73060607910156 L 1.9295214414596558 133.29176330566406 L 1.6507855653762817 132.84030151367188 L 1.4014524221420288 132.37620544433594 L 1.1817734241485596 131.89944458007812 L 0.9919999837875366 131.41000366210938 L 0.8225557208061218 130.87234497070312 L 0.6890500783920288 130.32449340820312 L 0.5912236571311951 129.76663208007812 L 0.5288171172142029 129.19891357421875 L 0.5015712380409241 128.62152099609375 L 0.5092265605926514 128.0346221923828 L 0.5515238642692566 127.43840026855469 L 0.6282036900520325 126.8330078125 L 0.7390068173408508 126.2186279296875 L 0.883673906326294 125.5954360961914 L 1.0619455575942993 124.96359252929688 L 1.2735625505447388 124.32328033447266 L 1.5182653665542603 123.67466735839844 L 1.7957948446273804 123.0179214477539 L 2.105891704559326 122.35322570800781 L 2.448296308517456 121.68074035644531 L 2.822749614715576 121.00064086914062 L 3.228992223739624 120.31310272216797 L 3.666764736175537 119.61830139160156 L 4.135807991027832 118.91639709472656 L 4.635862350463867 118.20756530761719 L 5.166668891906738 117.49198150634766 L 5.727967739105225 116.76982116699219 L 6.319499969482422 116.04125213623047 L 6.941006183624268 115.30644226074219 L 7.592226982116699 114.56556701660156 L 8.272903442382812 113.81880187988281 L 8.982775688171387 113.06631469726562 L 9.72158432006836 112.30827331542969 L 10.489069938659668 111.54486083984375 L 11.284974098205566 110.7762451171875 L 12.109037399291992 110.00259399414062 L 12.960999488830566 109.22408294677734 L 13.840600967407227 108.44087982177734 L 14.747583389282227 107.65316009521484 L 15.681687355041504 106.86109161376953 L 16.64265251159668 106.06485748291016 L 17.63022232055664 105.26461791992188 L 18.644134521484375 104.4605484008789 L 19.68412971496582 103.65282440185547 L 20.749950408935547 102.84161376953125 L 21.84133529663086 102.02709197998047 L 22.958026885986328 101.20942687988281 L 24.09976577758789 100.3887939453125 L 25.266292572021484 99.56536102294922 L 26.457345962524414 98.73930358886719 L 27.67266845703125 97.9107894897461 L 28.91200065612793 97.08000183105469 L 29.13414764404297 98.21341705322266 L 29.37293815612793 99.34109497070312 L 29.628131866455078 100.4629135131836 L 29.899499893188477 101.57875061035156 L 30.186803817749023 102.6884994506836 L 30.48981285095215 103.79203033447266 L 30.80828857421875 104.88923645019531 L 31.142000198364258 105.9800033569336 L 30.0632266998291 106.95909118652344 L 29.054725646972656 107.92298126220703 L 28.117630004882812 108.8709945678711 L 27.253076553344727 109.80245208740234 L 26.462202072143555 110.7166976928711 L 25.746139526367188 111.61305236816406 L 25.106027603149414 112.49083709716797 L 24.543001174926758 113.34939575195312 L 24.058195114135742 114.18804168701172 L 23.652746200561523 115.00611114501953 L 23.327791213989258 115.80293273925781 L 23.084463119506836 116.57783508300781 L 22.923898696899414 117.33013916015625 L 22.84723472595215 118.0591812133789 L 22.855606079101562 118.76428985595703 L 22.950149536132812 119.44478607177734 L 23.131999969482422 120.0999984741211 L 23.395723342895508 120.71307373046875 L 23.74079132080078 121.29239654541016 L 24.165943145751953 121.838134765625 L 24.669921875 122.35043334960938 L 25.251462936401367 122.82946014404297 L 25.909311294555664 123.27536010742188 L 26.6422061920166 123.68830871582031 L 27.448884963989258 124.06845092773438 L 28.328092575073242 124.41594696044922 L 29.278566360473633 124.73094940185547 L 30.299047470092773 125.01362609863281 L 31.388277053833008 125.26412963867188 L 32.54499435424805 125.48261260986328 L 33.76793670654297 125.66924285888672 L 35.055850982666016 125.82416534423828 L 36.407474517822266 125.94754791259766 L 37.82154846191406 126.03954315185547 L 39.296810150146484 126.10030364990234 L 40.832000732421875 126.12999725341797 L 41.49266052246094 126.13314056396484 L 42.16355514526367 126.13084411621094 L 42.844581604003906 126.12313079833984 L 43.5356559753418 126.11000061035156 L 44.23667907714844 126.09147644042969 L 44.947566986083984 126.06755828857422 L 45.66822052001953 126.03826141357422 L 46.39855194091797 126.00360107421875 L 47.138465881347656 125.96358489990234 L 47.88787078857422 125.91822052001953 L 48.64667892456055 125.8675308227539 L 49.414791107177734 125.8115234375 L 50.19212341308594 125.75019836425781 L 50.97857666015625 125.68357849121094 L 51.7740592956543 125.6116714477539 L 52.57848358154297 125.53449249267578 L 53.391754150390625 125.4520492553711 L 54.21377944946289 125.36434936523438 L 55.044471740722656 125.27141571044922 L 55.883731842041016 125.17324829101562 L 56.731468200683594 125.06986236572266 L 57.58759307861328 124.96127319335938 L 58.4520149230957 124.84748077392578 L 59.32463455200195 124.728515625 L 60.20536804199219 124.6043701171875 L 61.0941162109375 124.47506713867188 L 61.99079513549805 124.34060668945312 L 62.89530563354492 124.20101928710938 L 63.80755615234375 124.0562973022461 L 64.72745513916016 123.90646362304688 L 65.65491485595703 123.75151824951172 L 66.58984375 123.59149169921875 L 67.53213500976562 123.42637634277344 L 68.48171997070312 123.25618743896484 L 69.43848419189453 123.08094787597656 L 70.40235137939453 122.9006576538086 L 71.37321472167969 122.71533203125 L 72.35099792480469 122.52497863769531 L 73.33560180664062 122.32962036132812 L 74.32693481445312 122.1292495727539 L 75.32490539550781 121.92389678955078 L 76.32941436767578 121.71356201171875 L 77.34037780761719 121.49826049804688 L 78.35770416259766 121.27799987792969 L 79.38129425048828 121.05279541015625 L 80.41105651855469 120.82266235351562 L 81.44691467285156 120.58760833740234 L 82.48875427246094 120.3476333618164 L 83.5364990234375 120.10276794433594 L 84.59004211425781 119.85301208496094 L 85.64930725097656 119.59838104248047 L 86.71419525146484 119.33888244628906 L 87.78461456298828 119.07453155517578 L 88.8604736328125 118.80533599853516 L 89.9416732788086 118.53131103515625 L 91.02812957763672 118.25247192382812 L 92.1197509765625 117.96881866455078 L 93.21644592285156 117.68037414550781 L 94.318115234375 117.38713836669922 L 95.42466735839844 117.08912658691406 L 96.53601837158203 116.78636169433594 L 97.65206909179688 116.47883605957031 L 98.7727279663086 116.16658020019531 L 99.89791107177734 115.8495864868164 L 101.02751159667969 115.52787780761719 L 102.16144561767578 115.20146942138672 L 103.29962921142578 114.870361328125 L 104.44195556640625 114.53457641601562 L 105.58834075927734 114.1941146850586 L 106.73869323730469 113.84899139404297 L 107.89291381835938 113.49922180175781 L 109.05091857910156 113.14482116699219 L 110.21260833740234 112.7857894897461 L 111.37789154052734 112.4221420288086 L 112.54668426513672 112.05388641357422 L 113.7188949584961 111.68104553222656 L 114.89441680908203 111.30362701416016 L 116.07316589355469 110.92163848876953 L 117.25505828857422 110.53508758544922 L 118.43998718261719 110.14399719238281 L 119.62787628173828 109.74836730957031 L 120.81861877441406 109.34821319580078 L 122.01212310791016 108.94355010986328 L 123.20831298828125 108.53438568115234 L 124.4070816040039 108.1207275390625 L 125.60833740234375 107.70259857177734 L 126.81199645996094 107.27999877929688 L 128.00311279296875 106.85797119140625 L 129.18963623046875 106.43401336669922 L 130.3715057373047 106.00816345214844 L 131.54864501953125 105.58048248291016 L 132.72097778320312 105.15100860595703 L 133.888427734375 104.71979522705078 L 135.0509033203125 104.2868881225586 L 136.20835876464844 103.85232543945312 L 137.36068725585938 103.41616821289062 L 138.5078125 102.97845458984375 L 139.64968872070312 102.53923797607422 L 140.7862091064453 102.09855651855469 L 141.91729736328125 101.6564712524414 L 143.0428924560547 101.21302032470703 L 144.1629180908203 100.76824951171875 L 145.27728271484375 100.32221221923828 L 146.38592529296875 99.87495422363281 L 147.48875427246094 99.42652130126953 L 148.58570861816406 98.97695922851562 L 149.67669677734375 98.52632141113281 L 150.76165771484375 98.07464599609375 L 151.8404998779297 97.62198638916016 L 152.91314697265625 97.16839599609375 L 153.9795379638672 96.71390533447266 L 155.03958129882812 96.25857543945312 L 156.09320068359375 95.80245208740234 L 157.14031982421875 95.3455810546875 L 158.18087768554688 94.88800811767578 L 159.21478271484375 94.42977905273438 L 160.24195861816406 93.970947265625 L 161.2623291015625 93.51155853271484 L 162.27581787109375 93.05165100097656 L 163.28236389160156 92.5912857055664 L 164.2818603515625 92.13050079345703 L 165.27426147460938 91.66934967041016 L 166.25946044921875 91.20787048339844 L 167.23741149902344 90.7461166381836 L 168.2080078125 90.28414154052734 L 169.17120361328125 89.82198333740234 L 170.12689208984375 89.35969543457031 L 171.07501220703125 88.8973159790039 L 172.0155029296875 88.43490600585938 L 172.94825744628906 87.97250366210938 L 173.87319946289062 87.5101547241211 L 174.790283203125 87.04791259765625 L 175.69940185546875 86.5858154296875 L 176.60049438476562 86.1239242553711 L 177.4934844970703 85.66227722167969 L 178.37828063964844 85.200927734375 L 179.25482177734375 84.73991394042969 L 180.12303161621094 84.27928924560547 L 180.98281860351562 83.81909942626953 L 181.83412170410156 83.3593978881836 L 182.67684936523438 82.90022277832031 L 183.5109405517578 82.44161987304688 L 184.33631896972656 81.98365020751953 L 185.15289306640625 81.52635192871094 L 185.96058654785156 81.06977081298828 L 186.75933837890625 80.61396026611328 L 187.54905700683594 80.1589584350586 L 188.3296661376953 79.70481872558594 L 189.10110473632812 79.25159454345703 L 189.86328125 78.79932403564453 L 190.6161346435547 78.34805297851562 L 191.3595733642578 77.89784240722656 L 192.09352111816406 77.44872283935547 L 192.81790161132812 77.00074768066406 L 193.5326385498047 76.55397033691406 L 194.2376708984375 76.10843658447266 L 194.93289184570312 75.6641845703125 L 195.61825561523438 75.22126770019531 L 196.29367065429688 74.77973937988281 L 196.9590606689453 74.33963775634766 L 197.6143341064453 73.90101623535156 L 198.2594451904297 73.46391296386719 L 198.89430236816406 73.02838897705078 L 199.51882934570312 72.594482421875 L 200.13294982910156 72.16223907470703 L 200.736572265625 71.7317123413086 L 201.32965087890625 71.30294799804688 L 201.91207885742188 70.87599182128906 L 202.48379516601562 70.45088958740234 L 203.0447235107422 70.02769470214844 L 203.59478759765625 69.6064453125 L 204.1339111328125 69.18720245361328 L 204.66200256347656 68.7699966430664 L 205.817626953125 67.83403778076172 L 206.91537475585938 66.90937042236328 L 207.95433044433594 65.9965591430664 L 208.93362426757812 65.09614562988281 L 209.85235595703125 64.20868682861328 L 210.7096405029297 63.33472442626953 L 211.5045928955078 62.474815368652344 L 212.236328125 61.62950897216797 L 212.90394592285156 60.79935836791992 L 213.506591796875 59.98491287231445 L 214.0433349609375 59.18672180175781 L 214.5133056640625 58.40533447265625 L 214.91563415527344 57.64130783081055 L 215.24940490722656 56.89518356323242 L 215.5137481689453 56.16752243041992 L 215.707763671875 55.458866119384766 L 215.83058166503906 54.769771575927734 L 215.8813018798828 54.10078811645508 L 215.85903930664062 53.45246124267578 L 215.7628936767578 52.82535171508789 L 215.5919952392578 52.220001220703125 L 215.3455047607422 51.64072799682617 L 215.02674865722656 51.091400146484375 L 214.63674926757812 50.571895599365234 L 214.17660522460938 50.082088470458984 L 213.6473388671875 49.621856689453125 L 213.05001831054688 49.191078186035156 L 212.3856964111328 48.78963088989258 L 211.6554412841797 48.41738510131836 L 210.8603057861328 48.07422637939453 L 210.0013427734375 47.76002883911133 L 209.07960510253906 47.474666595458984 L 208.0961456298828 47.218017578125 L 207.05201721191406 46.989959716796875 L 205.94830322265625 46.79037094116211 L 204.78602600097656 46.61912536621094 L 203.56625366210938 46.47610092163086 L 202.29005432128906 46.361175537109375 L 200.95846557617188 46.274227142333984 L 199.57257080078125 46.21512985229492 L 198.13339233398438 46.18376159667969 L 196.64199829101562 46.18000030517578 L 196.06825256347656 45.13798904418945 L 195.47950744628906 44.104530334472656 L 194.87574768066406 43.07974624633789 L 194.2570037841797 42.063751220703125 L 193.6232452392578 41.05665969848633 L 192.97450256347656 40.05859375 L 192.3107452392578 39.06966781616211 L 191.6320037841797 38.09000015258789 L 193.12359619140625 37.91157913208008 L 194.59820556640625 37.74506759643555 L 196.05555725097656 37.59048080444336 L 197.4954071044922 37.44784927368164 L 198.91744995117188 37.317195892333984 L 200.3214569091797 37.19854736328125 L 201.7071533203125 37.0919189453125 L 203.0742645263672 36.997344970703125 L 204.42251586914062 36.91484451293945 L 205.7516632080078 36.84444046020508 L 207.0614471435547 36.78615951538086 L 208.3515625 36.740028381347656 L 209.6217803955078 36.70606231689453 L 210.871826171875 36.684295654296875 L 212.10142517089844 36.674747467041016 L 213.31031799316406 36.67744445800781 L 214.49822998046875 36.692405700683594 L 215.6649169921875 36.719661712646484 L 216.81008911132812 36.75923156738281 L 217.93348693847656 36.81114196777344 L 219.03485107421875 36.87541580200195 L 220.11392211914062 36.95207977294922 L 221.17041015625 37.04115676879883 L 222.20408630371094 37.142669677734375 L 223.2146453857422 37.25664138793945 L 224.20184326171875 37.38309860229492 L 225.1654052734375 37.52206802368164 L 226.10508728027344 37.67356872558594 L 227.0205841064453 37.83762741088867 L 227.9116668701172 38.01426696777344 L 228.77806091308594 38.203514099121094 L 229.61947631835938 38.40538787841797 L 230.43568420410156 38.61991882324219 L 231.2263946533203 38.847129821777344 L 231.9913330078125 39.087039947509766 L 232.7302703857422 39.33967590332031 L 233.44290161132812 39.60506820678711 L 234.1289825439453 39.88322830200195 L 234.7882537841797 40.1741943359375 L 235.42042541503906 40.47797775268555 L 236.02525329589844 40.794612884521484 L 236.6024627685547 41.12411880493164 L 237.1517791748047 41.46651840209961 L 237.67295837402344 41.82183837890625 L 238.1657257080078 42.19010543823242 L 238.62979125976562 42.57133865356445 L 239.06492614746094 42.9655647277832 L 239.47084045410156 43.372806549072266 L 239.8472900390625 43.7930908203125 L 240.19398498535156 44.2264404296875 L 240.5106658935547 44.672874450683594 L 240.7970733642578 45.13242721557617 L 241.05294799804688 45.6051139831543 L 241.27801513671875 46.090965270996094 L 241.4720001220703 46.59000015258789 L 241.63076782226562 47.087894439697266 L 241.75857543945312 47.59458541870117 L 241.85565185546875 48.10993576049805 L 241.92218017578125 48.63380813598633 L 241.95838928222656 49.16606903076172 L 241.96446228027344 49.706573486328125 L 241.9406280517578 50.25518798828125 L 241.88710021972656 50.81177520751953 L 241.80406188964844 51.37619400024414 L 241.6917266845703 51.94831085205078 L 241.55032348632812 52.527984619140625 L 241.38003540039062 53.11507797241211 L 241.1810760498047 53.70945739746094 L 240.9536590576172 54.310977935791016 L 240.69798278808594 54.91950607299805 L 240.41427612304688 55.53490447998047 L 240.10272216796875 56.15703582763672 L 239.76353454589844 56.78575897216797 L 239.3969268798828 57.420936584472656 L 239.0030975341797 58.062435150146484 L 238.582275390625 58.710113525390625 L 238.1346435546875 59.363834381103516 L 237.66041564941406 60.02345657348633 L 237.15980529785156 60.68885040283203 L 236.63302612304688 61.3598747253418 L 236.08026123046875 62.0363883972168 L 235.50173950195312 62.71825408935547 L 234.89767456054688 63.405338287353516 L 234.26824951171875 64.09750366210938 L 233.6136932373047 64.79460144042969 L 232.93418884277344 65.49650573730469 L 232.22998046875 66.20307922363281 L 231.50123596191406 66.91417694091797 L 230.74819946289062 67.6296615600586 L 229.97105407714844 68.34940338134766 L 229.17001342773438 69.07325744628906 L 228.3452911376953 69.80108642578125 L 227.49708557128906 70.53275299072266 L 226.62559509277344 71.26811981201172 L 225.73106384277344 72.00704956054688 L 224.81365966796875 72.74940490722656 L 223.8736114501953 73.49504852294922 L 222.9111328125 74.24384307861328 L 221.92640686035156 74.99564361572266 L 220.91966247558594 75.75032043457031 L 219.89108276367188 76.50773620605469 L 218.84091186523438 77.26775360107422 L 217.7693328857422 78.03022766113281 L 216.6765594482422 78.7950210571289 L 215.5627899169922 79.56200408935547 L 214.42823791503906 80.3310317993164 L 213.2731170654297 81.10197448730469 L 212.09764099121094 81.87468719482422 L 210.90199279785156 82.64903259277344 L 209.6864013671875 83.42487335205078 L 208.45106506347656 84.20207214355469 L 207.19619750976562 84.98049926757812 L 205.9219970703125 85.76000213623047 L 205.922 85.76" fill="#0000CD" stroke="none" stroke-width="2" /></g></svg>