<?xml version="1.0" encoding="UTF-8"?>
<svg id="Layer_2" xmlns="http://www.w3.org/2000/svg" viewBox="0 0 242.466 165.85">
  <defs>
    <style>
      .cls-1 {
        fill: none;
      }

      .cls-2 {
        fill: aqua;
      }

      .cls-2, .cls-3 {
        stroke: #000;
        stroke-linecap: round;
        stroke-linejoin: round;
      }

      .cls-3 {
        fill: #f7931e;
      }
    </style>
  </defs>
  <g id="Layer_1-2" data-name="Layer_1">
    <path class="cls-1" d="M40.832,126.13c-9.91-.09-16.29-2.04-17.7-6.03-1.28-3.64,1.7-8.53,8.01-14.12,2.26,7.17,5.54,13.93,9.69,20.15Z"/>
    <path class="cls-1" d="M204.662,68.77c-1.49-7.98-4.23-15.57-8.02-22.59,10.62-.07,17.48,1.88,18.95,6.04,1.46,4.16-2.64,9.96-10.93,16.55Z"/>
    <path class="cls-3" d="M204.662,68.77c-14.98,11.93-43.64,26.44-77.85,38.51-34.94,12.32-66.97,19.02-85.98,18.85-4.15-6.22-7.43-12.98-9.69-20.15-.91-2.9-1.66-5.87-2.23-8.9-.86-4.6-1.31-9.33-1.31-14.16C27.602,37.4,67.532.5,116.792.5c31.36,0,58.94,14.96,74.84,37.59,1.83,2.6,3.5,5.3,5.01,8.09,3.79,7.02,6.53,14.61,8.02,22.59Z"/>
    <path class="cls-3" d="M205.922,85.76c-1.62,44.21-40.9,79.59-89.13,79.59-25.43,0-48.37-9.84-64.61-25.61,22.48-2.89,50.41-9.7,79.86-20.09,28.98-10.22,54.65-22.21,73.88-33.89Z"/>
    <path class="cls-2" d="M205.922,85.76c-19.23,11.68-44.9,23.67-73.88,33.89-29.45,10.39-57.38,17.2-79.86,20.09-28.22,3.63-47.87,1.09-51.19-8.33-3-8.52,7.9-21.02,27.92-34.33.57,3.03,1.32,6,2.23,8.9-6.31,5.59-9.29,10.48-8.01,14.12,1.41,3.99,7.79,5.94,17.7,6.03,19.01.17,51.04-6.53,85.98-18.85,34.21-12.07,62.87-26.58,77.85-38.51,8.29-6.59,12.39-12.39,10.93-16.55-1.47-4.16-8.33-6.11-18.95-6.04-1.51-2.79-3.18-5.49-5.01-8.09,27.5-3.38,46.57-.77,49.84,8.5,3.37,9.54-10.73,24.09-35.55,39.17Z"/>
  </g>
</svg>