<?xml version="1.0" encoding="UTF-8"?>
<svg id="Layer_2" xmlns="http://www.w3.org/2000/svg" viewBox="0 0 242.468 165.847">
  <defs>
    <style>
      .cls-1 {
        fill: aqua;
      }

      .cls-1, .cls-2 {
        stroke: #000;
        stroke-linecap: round;
        stroke-linejoin: round;
      }

      .cls-2 {
        fill: #f7931e;
      }
    </style>
  </defs>
  <g id="Layer_1-2" data-name="Layer_1">
    <path class="cls-2" d="M205.98,82.923c0,21.866-9.214,41.744-24.25,56.498-16.265,15.961-39.343,25.925-64.94,25.925-11.512,0-22.514-2.015-32.616-5.685-33.125-12.034-56.574-41.855-56.574-76.738,0-25.846,12.873-48.914,33.017-64.026C75.952,7.394,95.5.5,116.791.5c26.63,0,50.533,10.785,66.876,27.887,13.887,14.532,22.314,33.625,22.314,54.537Z"/>
    <path class="cls-1" d="M241.475,46.594c-5.97-16.927-64.643-11.664-131.051,11.756C44.017,81.77-4.977,114.479.992,131.406c5.97,16.927,64.643,11.664,131.051-11.756,66.407-23.42,115.402-56.128,109.432-73.056ZM126.812,107.277c-53.145,18.743-99.562,24.482-103.676,12.818-4.113-11.664,35.634-36.313,88.779-55.056,53.145-18.743,99.562-24.482,103.676-12.818,4.113,11.664-35.634,36.313-88.779,55.056Z"/>
  </g>
</svg>