<?xml version="1.0" encoding="utf-8" ?>
<svg baseProfile="tiny" height="100%" shape-rendering="crispEdges" version="1.2" width="100%" xmlns="http://www.w3.org/2000/svg" xmlns:ev="http://www.w3.org/2001/xml-events" xmlns:xlink="http://www.w3.org/1999/xlink"><defs /><g><path d="M 205.97999572753906 82.9229965209961 L 205.97305297851562 83.96272277832031 L 205.95225524902344 84.9993667602539 L 205.9176788330078 86.03285217285156 L 205.8694305419922 87.0631103515625 L 205.80758666992188 88.09005737304688 L 205.73220825195312 89.1136245727539 L 205.6433868408203 90.13373565673828 L 205.5412139892578 91.15031433105469 L 205.42576599121094 92.16328430175781 L 205.297119140625 93.17257690429688 L 205.1553497314453 94.17810821533203 L 205.00054931640625 95.17980194091797 L 204.8328094482422 96.17759704589844 L 204.65219116210938 97.17140197753906 L 204.45877075195312 98.16114807128906 L 204.25265502929688 99.14675903320312 L 204.03392028808594 100.12816619873047 L 203.80262756347656 101.10528564453125 L 203.55886840820312 102.07804870605469 L 203.302734375 103.04637145996094 L 203.0343017578125 104.01018524169922 L 202.75363159179688 104.96941375732422 L 202.46084594726562 105.92398071289062 L 202.15599060058594 106.87381744384766 L 201.8391571044922 107.81883239746094 L 201.51043701171875 108.75897216796875 L 201.16990661621094 109.69414520263672 L 200.81764221191406 110.62427520751953 L 200.45372009277344 111.54930114746094 L 200.0782470703125 112.4691390991211 L 199.69126892089844 113.38371276855469 L 199.2928924560547 114.2929458618164 L 198.88319396972656 115.19676971435547 L 198.46224975585938 116.09510040283203 L 198.03013610839844 116.98786926269531 L 197.58694458007812 117.875 L 197.1327667236328 118.75641632080078 L 196.66766357421875 119.63204193115234 L 196.1917266845703 120.50180053710938 L 195.7050323486328 121.3656234741211 L 195.20765686035156 122.22343444824219 L 194.69970703125 123.07514953613281 L 194.1812286376953 123.92070007324219 L 193.65234375 124.760009765625 L 193.1130828857422 125.59300231933594 L 192.56358337402344 126.41960144042969 L 192.00387573242188 127.23973846435547 L 191.43408203125 128.05332946777344 L 190.85426330566406 128.8603057861328 L 190.26449584960938 129.66058349609375 L 189.6648712158203 130.4541015625 L 189.0554656982422 131.2407684326172 L 188.43637084960938 132.02052307128906 L 187.8076629638672 132.7932891845703 L 187.16941833496094 133.55897521972656 L 186.52171325683594 134.31752014160156 L 185.86465454101562 135.06884765625 L 185.1982879638672 135.81288146972656 L 184.52272033691406 136.54954528808594 L 183.83802795410156 137.2787628173828 L 183.144287109375 138.00047302246094 L 182.44158935546875 138.71456909179688 L 181.72999572753906 139.42100524902344 L 181.04835510253906 140.0825653076172 L 180.35890197753906 140.73712158203125 L 179.6616973876953 141.3845977783203 L 178.95681762695312 142.02496337890625 L 178.24432373046875 142.65811157226562 L 177.5242919921875 143.2840118408203 L 176.7967987060547 143.902587890625 L 176.0618896484375 144.51377868652344 L 175.3196563720703 145.11752319335938 L 174.5701446533203 145.7137451171875 L 173.81344604492188 146.30238342285156 L 173.0496368408203 146.8833770751953 L 172.27874755859375 147.45668029785156 L 171.50088500976562 148.02220153808594 L 170.71609497070312 148.57989501953125 L 169.92445373535156 149.1296844482422 L 169.12603759765625 149.67152404785156 L 168.32090759277344 150.205322265625 L 167.50914001464844 150.73104858398438 L 166.69078063964844 151.2486114501953 L 165.86593627929688 151.75796508789062 L 165.03463745117188 152.259033203125 L 164.19699096679688 152.7517547607422 L 163.35304260253906 153.23606872558594 L 162.5028533935547 153.7119140625 L 161.64651489257812 154.17922973632812 L 160.78408813476562 154.637939453125 L 159.91563415527344 155.08799743652344 L 159.04122924804688 155.52931213378906 L 158.1609344482422 155.96185302734375 L 157.2748260498047 156.38552856445312 L 156.3829803466797 156.80029296875 L 155.48544311523438 157.20606994628906 L 154.5823211669922 157.60279846191406 L 153.67364501953125 157.99041748046875 L 152.75950622558594 158.36888122558594 L 151.83995056152344 158.7380828857422 L 150.9150848388672 159.09800720214844 L 149.9849395751953 159.44854736328125 L 149.04962158203125 159.7896728515625 L 148.10916137695312 160.12130737304688 L 147.1636505126953 160.44337463378906 L 146.21315002441406 160.75584411621094 L 145.2577362060547 161.05860900878906 L 144.2974853515625 161.3516387939453 L 143.3324432373047 161.63485717773438 L 142.36268615722656 161.90818786621094 L 141.38829040527344 162.1715850830078 L 140.40933227539062 162.42498779296875 L 139.4258575439453 162.6683349609375 L 138.43795776367188 162.9015350341797 L 137.44569396972656 163.12454223632812 L 136.44912719726562 163.33729553222656 L 135.44834899902344 163.53973388671875 L 134.44338989257812 163.73178100585938 L 133.43435668945312 163.91339111328125 L 132.4213104248047 164.08447265625 L 131.404296875 164.2449951171875 L 130.38340759277344 164.39486694335938 L 129.35870361328125 164.53402709960938 L 128.33026123046875 164.6624298095703 L 127.29813385009766 164.78001403808594 L 126.26241302490234 164.88668823242188 L 125.22314453125 164.98240661621094 L 124.18041229248047 165.06710815429688 L 123.13428497314453 165.14071655273438 L 122.08482360839844 165.2031707763672 L 121.0321044921875 165.25442504882812 L 119.9761962890625 165.2943878173828 L 118.91716003417969 165.32301330566406 L 117.85507202148438 165.34024047851562 L 116.79000091552734 165.3459930419922 L 115.7122573852539 165.34010314941406 L 114.6375732421875 165.32247924804688 L 113.5660171508789 165.2931671142578 L 112.49766540527344 165.2522430419922 L 111.4325942993164 165.1997833251953 L 110.37085723876953 165.13584899902344 L 109.31254577636719 165.0605010986328 L 108.25772094726562 164.97381591796875 L 107.20645141601562 164.87583923339844 L 106.1588134765625 164.7666473388672 L 105.11488342285156 164.6463165283203 L 104.07472229003906 164.51490783691406 L 103.03840637207031 164.3724822998047 L 102.00601196289062 164.21910095214844 L 100.97760009765625 164.05482482910156 L 99.9532470703125 163.87974548339844 L 98.93302917480469 163.69390869140625 L 97.9170150756836 163.4973907470703 L 96.90526580810547 163.29025268554688 L 95.89787292480469 163.0725555419922 L 94.89488983154297 162.84437561035156 L 93.89639282226562 162.60577392578125 L 92.90245819091797 162.3568115234375 L 91.91315460205078 162.09756469726562 L 90.92855072021484 161.8280792236328 L 89.94872283935547 161.54844665527344 L 88.97373962402344 161.25872802734375 L 88.00367736816406 160.95896911621094 L 87.0385971069336 160.6492462158203 L 86.07857513427734 160.3296356201172 L 85.12368774414062 160.0001983642578 L 84.17400360107422 159.66099548339844 L 83.24781036376953 159.31895446777344 L 82.32675170898438 158.96763610839844 L 81.41090393066406 158.6071319580078 L 80.50033569335938 158.23748779296875 L 79.59510040283203 157.8587646484375 L 78.69527435302734 157.47103881835938 L 77.8009262084961 157.07437133789062 L 76.91211700439453 156.66880798339844 L 76.02892303466797 156.2544403076172 L 75.15139770507812 155.831298828125 L 74.27962493896484 155.3994598388672 L 73.41366577148438 154.958984375 L 72.5535888671875 154.5099334716797 L 71.69945526123047 154.0523681640625 L 70.8513412475586 153.58636474609375 L 70.00930786132812 153.11196899414062 L 69.17342376708984 152.62924194335938 L 68.34375762939453 152.1382598876953 L 67.52037048339844 151.6390838623047 L 66.7033462524414 151.1317596435547 L 65.89273834228516 150.61636352539062 L 65.08861541748047 150.09295654296875 L 64.29104614257812 149.5615997314453 L 63.50010299682617 149.02235412597656 L 62.71584701538086 148.47528076171875 L 61.938350677490234 147.9204559326172 L 61.16767883300781 147.35791015625 L 60.403900146484375 146.78773498535156 L 59.64707946777344 146.20999145507812 L 58.89728546142578 145.62472534179688 L 58.15458679199219 145.03201293945312 L 57.41904830932617 144.43190002441406 L 56.69074249267578 143.824462890625 L 55.969730377197266 143.2097625732422 L 55.25608444213867 142.58786010742188 L 54.549869537353516 141.95883178710938 L 53.85115432739258 141.3227081298828 L 53.16000747680664 140.67958068847656 L 52.47649383544922 140.02947998046875 L 51.80067825317383 139.3725128173828 L 51.13263702392578 138.7086944580078 L 50.47243118286133 138.0381317138672 L 49.820125579833984 137.36085510253906 L 49.17579650878906 136.6769256591797 L 48.53950500488281 135.98643493652344 L 47.91131591796875 135.28941345214844 L 47.29130554199219 134.58595275878906 L 46.679534912109375 133.87608337402344 L 46.076072692871094 133.15989685058594 L 45.480987548828125 132.43743896484375 L 44.894344329833984 131.70877075195312 L 44.31621551513672 130.97396850585938 L 43.74666213989258 130.2330780029297 L 43.18575668334961 129.48617553710938 L 42.63356399536133 128.73330688476562 L 42.090152740478516 127.97455596923828 L 41.55559158325195 127.20996856689453 L 41.02994155883789 126.43961334228516 L 40.51327896118164 125.6635513305664 L 40.00566482543945 124.88184356689453 L 39.507171630859375 124.09455108642578 L 39.017860412597656 123.30174255371094 L 38.53780746459961 122.50347900390625 L 38.06707000732422 121.69981384277344 L 37.6057243347168 120.89082336425781 L 37.153831481933594 120.07655334472656 L 36.711463928222656 119.257080078125 L 36.2786865234375 118.43246459960938 L 35.85556411743164 117.6027603149414 L 35.442169189453125 116.76803588867188 L 35.03856658935547 115.92835235595703 L 34.64482498168945 115.08377838134766 L 34.26101303100586 114.23436737060547 L 33.8871955871582 113.38018035888672 L 33.5234375 112.52128601074219 L 33.1698112487793 111.65774536132812 L 32.826385498046875 110.78961944580078 L 32.493221282958984 109.9169692993164 L 32.17039108276367 109.03986358642578 L 31.857959747314453 108.15835571289062 L 31.55599594116211 107.27251434326172 L 31.26456642150879 106.38239288330078 L 30.983741760253906 105.48806762695312 L 30.713584899902344 104.58959197998047 L 30.454166412353516 103.6870346069336 L 30.205551147460938 102.78044891357422 L 29.967809677124023 101.86990356445312 L 29.74100685119629 100.95545196533203 L 29.525211334228516 100.03717041015625 L 29.32048988342285 99.1151123046875 L 29.126911163330078 98.18933868408203 L 28.94454002380371 97.25992584228516 L 28.773447036743164 96.32691192626953 L 28.613698959350586 95.390380859375 L 28.465362548828125 94.45038604736328 L 28.328506469726562 93.50698852539062 L 28.203195571899414 92.56024932861328 L 28.08949851989746 91.61024475097656 L 27.987483978271484 90.65701293945312 L 27.897218704223633 89.70063781738281 L 27.818769454956055 88.74117279052734 L 27.75220489501953 87.77867889404297 L 27.697589874267578 86.81322479248047 L 27.65499496459961 85.84486389160156 L 27.624486923217773 84.87366485595703 L 27.60613250732422 83.89968872070312 L 27.600000381469727 82.9229965209961 L 27.606674194335938 81.90422058105469 L 27.62664222717285 80.88838958740234 L 27.65983009338379 79.87559509277344 L 27.706161499023438 78.86589050292969 L 27.76555824279785 77.85935974121094 L 27.83794403076172 76.85607147216797 L 27.923242568969727 75.85608673095703 L 28.021377563476562 74.85948944091797 L 28.132272720336914 73.86634063720703 L 28.255849838256836 72.87671661376953 L 28.39203453063965 71.89067840576172 L 28.540748596191406 70.90830993652344 L 28.701915740966797 69.92967987060547 L 28.87546157836914 68.9548568725586 L 29.06130599975586 67.98390197753906 L 29.259374618530273 67.01689910888672 L 29.469589233398438 66.05391693115234 L 29.691875457763672 65.09501647949219 L 29.926156997680664 64.1402816772461 L 30.172353744506836 63.18977355957031 L 30.43039321899414 62.243568420410156 L 30.7001953125 61.30173873901367 L 30.981685638427734 60.36434555053711 L 31.27478790283203 59.43146896362305 L 31.579423904418945 58.503177642822266 L 31.895517349243164 57.57954025268555 L 32.222991943359375 56.66062927246094 L 32.561771392822266 55.74651336669922 L 32.911781311035156 54.83726501464844 L 33.27294158935547 53.93295669555664 L 33.645179748535156 53.03365707397461 L 34.028411865234375 52.139434814453125 L 34.422569274902344 51.2503662109375 L 34.827571868896484 50.36651611328125 L 35.24333953857422 49.48796081542969 L 35.669803619384766 48.61476516723633 L 36.10688400268555 47.747005462646484 L 36.554500579833984 46.88475036621094 L 37.01258087158203 46.02806854248047 L 37.481048583984375 45.177032470703125 L 37.95982360839844 44.33171463012695 L 38.448829650878906 43.492183685302734 L 38.947998046875 42.658512115478516 L 39.45724105834961 41.83076858520508 L 39.97649002075195 41.00902557373047 L 40.50566482543945 40.19335174560547 L 41.0446891784668 39.383819580078125 L 41.59348678588867 38.580501556396484 L 42.151981353759766 37.78346252441406 L 42.720096588134766 36.99277877807617 L 43.29775619506836 36.208518981933594 L 43.884883880615234 35.430755615234375 L 44.48139953613281 34.65956115722656 L 45.08723068237305 33.894996643066406 L 45.702301025390625 33.13714599609375 L 46.32653045654297 32.386070251464844 L 46.959842681884766 31.641843795776367 L 47.60216522216797 30.904537200927734 L 48.25341796875 30.17422103881836 L 48.91352462768555 29.45096778869629 L 49.58241271972656 28.734846115112305 L 50.2599983215332 28.02592658996582 L 50.94621276855469 27.324281692504883 L 51.64097213745117 26.629980087280273 L 52.34420394897461 25.94309425354004 L 53.05583190917969 25.263694763183594 L 53.77577590942383 24.59185218811035 L 54.50396728515625 23.927637100219727 L 55.240318298339844 23.271120071411133 L 55.984764099121094 22.622371673583984 L 56.73721694946289 21.981464385986328 L 57.49760818481445 21.348466873168945 L 58.2658576965332 20.723451614379883 L 59.041893005371094 20.106487274169922 L 59.82563018798828 19.49764633178711 L 60.617000579833984 18.89699935913086 L 61.38724899291992 18.325700759887695 L 62.164451599121094 17.762147903442383 L 62.94853973388672 17.206403732299805 L 63.73944091796875 16.658531188964844 L 64.53709411621094 16.118593215942383 L 65.34142303466797 15.586654663085938 L 66.15235900878906 15.062779426574707 L 66.96984100341797 14.547029495239258 L 67.79379272460938 14.039469718933105 L 68.6241455078125 13.540162086486816 L 69.4608383178711 13.049171447753906 L 70.30380249023438 12.566559791564941 L 71.1529541015625 12.092391967773438 L 72.00824737548828 11.626730918884277 L 72.86959075927734 11.16964054107666 L 73.7369384765625 10.721183776855469 L 74.61019897460938 10.281423568725586 L 75.48931884765625 9.850424766540527 L 76.37422943115234 9.428250312805176 L 77.26485443115234 9.014963150024414 L 78.16112518310547 8.610627174377441 L 79.06298065185547 8.21530532836914 L 79.97035217285156 7.829061985015869 L 80.88316345214844 7.45196008682251 L 81.80134582519531 7.0840630531311035 L 82.72483825683594 6.72543478012085 L 83.65357208251953 6.376138210296631 L 84.58747100830078 6.0362372398376465 L 85.5264663696289 5.705794811248779 L 86.47049713134766 5.3848748207092285 L 87.41949462890625 5.073541164398193 L 88.37338256835938 4.771856307983398 L 89.33209991455078 4.479884147644043 L 90.29557800292969 4.197688579559326 L 91.26374053955078 3.92533278465271 L 92.23651885986328 3.6628799438476562 L 93.21385192871094 3.4103939533233643 L 94.19567108154297 3.167937994003296 L 95.18190002441406 2.9355757236480713 L 96.17247772216797 2.7133703231811523 L 97.1673355102539 2.5013856887817383 L 98.16639709472656 2.299685001373291 L 99.16960144042969 2.1083319187164307 L 100.1768798828125 1.9273896217346191 L 101.18815612792969 1.7569218873977661 L 102.203369140625 1.596992015838623 L 103.22244262695312 1.4476635456085205 L 104.24532318115234 1.309000015258789 L 105.27191925048828 1.1810647249221802 L 106.30218505859375 1.063921332359314 L 107.3360366821289 0.9576331377029419 L 108.3734130859375 0.8622636795043945 L 109.41424560546875 0.7778764963150024 L 110.45845794677734 0.7045350074768066 L 111.50598907470703 0.6423026323318481 L 112.55677032470703 0.5912429690361023 L 113.61073303222656 0.5514193773269653 L 114.66780090332031 0.5228953957557678 L 115.72791290283203 0.5057344436645508 L 116.79100036621094 0.5 L 117.854736328125 0.5057414174079895 L 118.91548919677734 0.5229232907295227 L 119.97319793701172 0.5514820218086243 L 121.02779388427734 0.5913541913032532 L 122.07920837402344 0.6424761414527893 L 123.12736511230469 0.7047843933105469 L 124.17220306396484 0.7782153487205505 L 125.21365356445312 0.8627055287361145 L 126.25164031982422 0.9581912755966187 L 127.28610229492188 1.064609169960022 L 128.3169708251953 1.1818956136703491 L 129.34417724609375 1.3099870681762695 L 130.3676300048828 1.4488199949264526 L 131.38729858398438 1.5983308553695679 L 132.40309143066406 1.7584559917449951 L 133.41494750976562 1.9291319847106934 L 134.42279052734375 2.110295295715332 L 135.4265594482422 2.301882266998291 L 136.42617797851562 2.5038297176361084 L 137.4215850830078 2.716073513031006 L 138.4127197265625 2.9385504722595215 L 139.3994903564453 3.171196937561035 L 140.3818359375 3.413949489593506 L 141.3596954345703 3.6667444705963135 L 142.33299255371094 3.929518461227417 L 143.3016815185547 4.202208042144775 L 144.26565551757812 4.484748840332031 L 145.22486877441406 4.777078628540039 L 146.1792449951172 5.079132556915283 L 147.12872314453125 5.390848159790039 L 148.0732421875 5.712161064147949 L 149.01271057128906 6.043008327484131 L 149.9470672607422 6.383326053619385 L 150.87625122070312 6.73305082321167 L 151.80018615722656 7.092118740081787 L 152.71881103515625 7.4604668617248535 L 153.63204956054688 7.83803129196167 L 154.53982543945312 8.224748611450195 L 155.4420928955078 8.620555877685547 L 156.33877563476562 9.02538776397705 L 157.22979736328125 9.43918228149414 L 158.11508178710938 9.861875534057617 L 158.9945831298828 10.293403625488281 L 159.8682098388672 10.73370361328125 L 160.7359161376953 11.182711601257324 L 161.5976104736328 11.640364646911621 L 162.45323181152344 12.106597900390625 L 163.30271911621094 12.581348419189453 L 164.14599609375 13.064553260803223 L 164.98300170898438 13.556148529052734 L 165.81365966796875 14.056069374084473 L 166.6378936767578 14.564254760742188 L 167.45565795898438 15.080638885498047 L 168.26686096191406 15.605159759521484 L 169.07144165039062 16.137752532958984 L 169.8693389892578 16.678356170654297 L 170.6604766845703 17.226903915405273 L 171.44479370117188 17.78333282470703 L 172.2222137451172 18.34758186340332 L 172.99266052246094 18.919584274291992 L 173.75608825683594 19.499279022216797 L 174.5124053955078 20.086599349975586 L 175.2615509033203 20.681486129760742 L 176.00344848632812 21.283872604370117 L 176.73805236816406 21.89369773864746 L 177.4652862548828 22.510894775390625 L 178.18505859375 23.13540267944336 L 178.89732360839844 23.76715660095215 L 179.6020050048828 24.40609359741211 L 180.2990264892578 25.05215072631836 L 180.98834228515625 25.705263137817383 L 181.66986083984375 26.365367889404297 L 182.34352111816406 27.032400131225586 L 183.00926208496094 27.706298828125 L 183.66700744628906 28.386999130249023 L 184.35678100585938 29.117387771606445 L 185.03738403320312 29.855300903320312 L 185.70872497558594 30.600664138793945 L 186.3707275390625 31.35340118408203 L 187.02328491210938 32.113433837890625 L 187.6663360595703 32.88068771362305 L 188.29978942871094 33.655086517333984 L 188.92356872558594 34.436553955078125 L 189.53758239746094 35.225013732910156 L 190.1417694091797 36.020389556884766 L 190.73602294921875 36.82260513305664 L 191.3202667236328 37.63158416748047 L 191.89442443847656 38.44725036621094 L 192.45840454101562 39.26953125 L 193.01214599609375 40.09834289550781 L 193.5555419921875 40.933616638183594 L 194.08851623535156 41.775272369384766 L 194.61099243164062 42.62323760986328 L 195.1228790283203 43.4774284362793 L 195.62411499023438 44.33777618408203 L 196.11459350585938 45.20420455932617 L 196.59423828125 46.07663345336914 L 197.06297302246094 46.954986572265625 L 197.5207061767578 47.83919143676758 L 197.96737670898438 48.72917175292969 L 198.4028778076172 49.624847412109375 L 198.82713317871094 50.52614212036133 L 199.2400665283203 51.4329833984375 L 199.64158630371094 52.34529495239258 L 200.03163146972656 53.26300048828125 L 200.4100799560547 54.18601989746094 L 200.7769012451172 55.114280700683594 L 201.1319580078125 56.047706604003906 L 201.4752197265625 56.98622131347656 L 201.8065643310547 57.929744720458984 L 202.1259307861328 58.87820816040039 L 202.4332275390625 59.83152770996094 L 202.72837829589844 60.789634704589844 L 203.01129150390625 61.752445220947266 L 203.28189086914062 62.71989059448242 L 203.54010009765625 63.69188690185547 L 203.7858123779297 64.66836547851562 L 204.01898193359375 65.64924621582031 L 204.239501953125 66.63445281982422 L 204.44729614257812 67.62390899658203 L 204.6422882080078 68.61753845214844 L 204.82437133789062 69.61526489257812 L 204.99349975585938 70.61701965332031 L 205.14956665039062 71.62271118164062 L 205.29248046875 72.63227844238281 L 205.4221954345703 73.64563751220703 L 205.53858947753906 74.66271209716797 L 205.6416015625 75.68343353271484 L 205.7311553955078 76.70771026611328 L 205.80715942382812 77.73548126220703 L 205.86952209472656 78.76666259765625 L 205.9181671142578 79.80118560791016 L 205.95301818847656 80.8389663696289 L 205.97398376464844 81.87992858886719 L 205.9810028076172 82.92400360107422 L 205.98 82.923" fill="#D3D3D3" stroke="none" stroke-width="2" /><path d="M 241.47500610351562 46.59400177001953 L 241.3449249267578 46.249305725097656 L 241.20010375976562 45.910850524902344 L 241.04061889648438 45.57862854003906 L 240.86656188964844 45.25262451171875 L 240.67800903320312 44.932838439941406 L 240.47506713867188 44.619258880615234 L 240.2578125 44.3118782043457 L 240.0263214111328 44.01068878173828 L 239.7806854248047 43.71568298339844 L 239.52099609375 43.42685317993164 L 239.24734497070312 43.14419174194336 L 238.95980834960938 42.86769104003906 L 238.65847778320312 42.59734344482422 L 238.34344482421875 42.3331413269043 L 238.01478576660156 42.075077056884766 L 237.67259216308594 41.82313919067383 L 237.31695556640625 41.577327728271484 L 236.9479522705078 41.337623596191406 L 236.565673828125 41.10403060913086 L 236.1702117919922 40.87653350830078 L 235.76165771484375 40.655128479003906 L 235.34007263183594 40.43980407714844 L 234.9055633544922 40.23055648803711 L 234.45822143554688 40.027374267578125 L 233.9981231689453 39.83025360107422 L 233.52536010742188 39.639183044433594 L 233.04000854492188 39.454158782958984 L 232.5421600341797 39.27516555786133 L 232.03192138671875 39.10220718383789 L 231.50933837890625 38.935264587402344 L 230.97454833984375 38.77433395385742 L 230.42759704589844 38.61941146850586 L 229.8685760498047 38.47048568725586 L 229.29759216308594 38.32754898071289 L 228.7147216796875 38.19059371948242 L 228.1200408935547 38.05961227416992 L 227.51365661621094 37.93459701538086 L 226.89564514160156 37.8155403137207 L 226.26609802246094 37.70243453979492 L 225.62509155273438 37.59526824951172 L 224.9727020263672 37.494041442871094 L 224.30905151367188 37.398738861083984 L 223.6342010498047 37.309356689453125 L 222.94825744628906 37.225887298583984 L 222.25128173828125 37.148319244384766 L 221.54336547851562 37.07665252685547 L 220.82461547851562 37.010868072509766 L 220.0950927734375 36.950965881347656 L 219.3549041748047 36.89693832397461 L 218.6041259765625 36.84877395629883 L 217.8428497314453 36.80646896362305 L 217.0711669921875 36.77001190185547 L 216.28915405273438 36.73939514160156 L 215.49688720703125 36.71461486816406 L 214.69448852539062 36.69565963745117 L 213.8820037841797 36.682525634765625 L 213.05955505371094 36.67519760131836 L 212.22720336914062 36.673675537109375 L 211.38504028320312 36.67794418334961 L 210.53317260742188 36.68800354003906 L 209.67166137695312 36.70384216308594 L 208.8006134033203 36.7254524230957 L 207.9200897216797 36.75282669067383 L 207.03021240234375 36.78595733642578 L 206.13104248046875 36.82483673095703 L 205.22267150878906 36.86945724487305 L 204.30517578125 36.91980743408203 L 203.378662109375 36.97588348388672 L 202.44322204589844 37.037681579589844 L 201.49891662597656 37.10518264770508 L 200.54583740234375 37.17839050292969 L 199.58409118652344 37.25728988647461 L 198.61375427246094 37.34187316894531 L 197.63490295410156 37.4321403503418 L 196.6476287841797 37.528072357177734 L 195.65203857421875 37.62967300415039 L 194.648193359375 37.73692321777344 L 193.6361846923828 37.84982681274414 L 192.61610412597656 37.96836471557617 L 191.58804321289062 38.09253692626953 L 190.5520782470703 38.22233200073242 L 189.50830078125 38.35774230957031 L 188.45680236816406 38.49876403808594 L 187.3976593017578 38.6453857421875 L 186.3309783935547 38.7975959777832 L 185.25680541992188 38.95539474487305 L 184.17527770996094 39.118770599365234 L 183.08644104003906 39.2877197265625 L 181.99041748046875 39.46222686767578 L 180.8872528076172 39.64228820800781 L 179.77706909179688 39.82789611816406 L 178.65994262695312 40.019039154052734 L 177.53594970703125 40.21571731567383 L 176.40518188476562 40.41791534423828 L 175.2677459716797 40.625633239746094 L 174.12368774414062 40.8388557434082 L 172.97312927246094 41.05757522583008 L 171.81614685058594 41.28178787231445 L 170.65283203125 41.5114860534668 L 169.48326110839844 41.74666213989258 L 168.30751037597656 41.9873046875 L 167.12570190429688 42.23340606689453 L 165.93789672851562 42.484962463378906 L 164.74417114257812 42.74196243286133 L 163.54464721679688 43.00440216064453 L 162.33937072753906 43.27227020263672 L 161.1284637451172 43.54555892944336 L 159.91200256347656 43.82426452636719 L 158.6900634765625 44.10837173461914 L 157.46273803710938 44.39788055419922 L 156.2301025390625 44.692779541015625 L 154.99227905273438 44.993064880371094 L 153.7493133544922 45.29872131347656 L 152.50131225585938 45.609745025634766 L 151.2483673095703 45.92613220214844 L 149.9905548095703 46.247867584228516 L 148.72796630859375 46.574947357177734 L 147.46067810058594 46.90736389160156 L 146.18878173828125 47.24510955810547 L 144.91238403320312 47.58817672729492 L 143.6315460205078 47.936553955078125 L 142.3463592529297 48.29023742675781 L 141.05691528320312 48.64921951293945 L 139.7633056640625 49.013492584228516 L 138.46560668945312 49.3830451965332 L 137.16390991210938 49.757869720458984 L 135.85830688476562 50.13796615600586 L 134.54888916015625 50.5233154296875 L 133.2357177734375 50.91392135620117 L 131.9188995361328 51.30976486206055 L 130.5985107421875 51.710845947265625 L 129.274658203125 52.11715316772461 L 127.94740295410156 52.528682708740234 L 126.6168441772461 52.9454231262207 L 125.28307342529297 53.367366790771484 L 123.9461669921875 53.79450607299805 L 122.60621643066406 54.226837158203125 L 121.26331329345703 54.664344787597656 L 119.91753387451172 55.10702896118164 L 118.56897735595703 55.55487823486328 L 117.21772003173828 56.00788116455078 L 115.86384582519531 56.46603775024414 L 114.50745391845703 56.92933654785156 L 113.14862823486328 57.39776611328125 L 111.78744506835938 57.87132263183594 L 110.42400360107422 58.349998474121094 L 109.06193542480469 58.8325309753418 L 107.70484161376953 59.317630767822266 L 106.35279846191406 59.80524826049805 L 105.00587463378906 60.29533386230469 L 103.66413879394531 60.787841796875 L 102.32766723632812 61.28272247314453 L 100.99652862548828 61.77992630004883 L 99.6707992553711 62.2794075012207 L 98.35055541992188 62.7811164855957 L 97.03585815429688 63.28500747680664 L 95.72679138183594 63.7910270690918 L 94.42342376708984 64.29912567138672 L 93.12581634521484 64.80926513671875 L 91.83406066894531 65.3213882446289 L 90.5482177734375 65.83545684814453 L 89.26836395263672 66.35140228271484 L 87.99456024169922 66.86920166015625 L 86.72689819335938 67.38878631591797 L 85.46543884277344 67.91011810302734 L 84.21025848388672 68.43314361572266 L 82.96141815185547 68.95781707763672 L 81.71900939941406 69.48409271240234 L 80.48309326171875 70.01191711425781 L 79.25373840332031 70.54124450683594 L 78.0310287475586 71.07202911376953 L 76.81502532958984 71.60421752929688 L 75.60580444335938 72.13776397705078 L 74.4034423828125 72.67262268066406 L 73.2080078125 73.208740234375 L 72.01957702636719 73.7460708618164 L 70.83821868896484 74.2845687866211 L 69.66400146484375 74.82418060302734 L 68.49700927734375 75.36486053466797 L 67.3373031616211 75.90656280517578 L 66.1849594116211 76.44923400878906 L 65.04004669189453 76.99282836914062 L 63.90264892578125 77.53729248046875 L 62.7728271484375 78.08258819580078 L 61.65066146850586 78.628662109375 L 60.536216735839844 79.17546081542969 L 59.42957305908203 79.72294616699219 L 58.33079528808594 80.27106475830078 L 57.239959716796875 80.81976318359375 L 56.15713882446289 81.36900329589844 L 55.0824089050293 81.9187240600586 L 54.015830993652344 82.46888732910156 L 52.957489013671875 83.01944732666016 L 51.90745162963867 83.57034301757812 L 50.865787506103516 84.12153625488281 L 49.83257293701172 84.67298126220703 L 48.80788040161133 85.22461700439453 L 47.79178237915039 85.77640533447266 L 46.78434753417969 86.32829284667969 L 45.78565216064453 86.88023376464844 L 44.79576873779297 87.43217468261719 L 43.81476593017578 87.98407745361328 L 42.84272003173828 88.535888671875 L 41.879703521728516 89.08755493164062 L 40.925785064697266 89.6390380859375 L 39.981040954589844 90.1902847290039 L 39.04553985595703 90.74124145507812 L 38.11935806274414 91.29186248779297 L 37.20256423950195 91.84210968017578 L 36.29523468017578 92.39191436767578 L 35.397438049316406 92.94125366210938 L 34.509246826171875 93.49005889892578 L 33.6307373046875 94.03828430175781 L 32.76197814941406 94.58589172363281 L 31.903045654296875 95.13282775878906 L 31.05400848388672 95.67903900146484 L 30.214941024780273 96.2244873046875 L 29.385913848876953 96.76911163330078 L 28.566999435424805 97.31287384033203 L 27.758272171020508 97.85572052001953 L 26.95980453491211 98.3976058959961 L 26.171667098999023 98.93848419189453 L 25.393932342529297 99.47830200195312 L 24.62667465209961 100.01701354980469 L 23.869964599609375 100.5545654296875 L 23.12387466430664 101.0909194946289 L 22.388477325439453 101.62601470947266 L 21.66384506225586 102.1598129272461 L 20.95005226135254 102.6922607421875 L 20.247167587280273 103.22331237792969 L 19.555265426635742 103.75292205810547 L 18.874420166015625 104.2810287475586 L 18.204700469970703 104.80760192871094 L 17.546180725097656 105.33258056640625 L 16.89893341064453 105.85592651367188 L 16.263031005859375 106.37757873535156 L 15.638544082641602 106.89749145507812 L 15.02554702758789 107.4156265258789 L 14.424111366271973 107.93193054199219 L 13.834310531616211 108.44635009765625 L 13.256216049194336 108.95884704589844 L 12.689899444580078 109.4693603515625 L 12.135435104370117 109.97785186767578 L 11.592893600463867 110.48426818847656 L 11.062348365783691 110.98856353759766 L 10.543871879577637 111.49068450927734 L 10.037535667419434 111.99058532714844 L 9.543412208557129 112.48822784423828 L 9.061574935913086 112.98355102539062 L 8.592096328735352 113.47650909423828 L 8.13504695892334 113.96704864501953 L 7.690500736236572 114.45513916015625 L 7.258530139923096 114.94071197509766 L 6.839206218719482 115.4237289428711 L 6.432602882385254 115.90414428710938 L 6.038791656494141 116.38190460205078 L 5.6578450202941895 116.85696411132812 L 5.2898359298706055 117.32926940917969 L 4.934835910797119 117.79877471923828 L 4.592918395996094 118.26543426513672 L 4.264154434204102 118.72920227050781 L 3.948617696762085 119.19002532958984 L 3.6463799476623535 119.6478500366211 L 3.357513427734375 120.1026382446289 L 3.0820910930633545 120.55433654785156 L 2.8201849460601807 121.00289916992188 L 2.5718674659729004 121.44828033447266 L 2.3372108936309814 121.89041900634766 L 2.11628794670105 122.32928466796875 L 1.9091708660125732 122.76480865478516 L 1.715932011604309 123.19696044921875 L 1.5366437435150146 123.62568664550781 L 1.3713785409927368 124.05093383789062 L 1.220208764076233 124.47265625 L 1.0832067728042603 124.89080810546875 L 0.9604450464248657 125.30534362792969 L 0.8519958853721619 125.71620178222656 L 0.7579317688941956 126.12335205078125 L 0.6783250570297241 126.52672576904297 L 0.6132481098175049 126.9262924194336 L 0.5627733469009399 127.3219985961914 L 0.5269731879234314 127.71379089355469 L 0.5059199929237366 128.10162353515625 L 0.4996861517429352 128.48544311523438 L 0.5083440542221069 128.86521911621094 L 0.5319661498069763 129.2408905029297 L 0.5706247687339783 129.61239624023438 L 0.6243923902511597 129.97972106933594 L 0.6933412551879883 130.34278869628906 L 0.7775439620018005 130.70155334472656 L 0.8770726919174194 131.05596923828125 L 0.9919999837875366 131.406005859375 L 1.1220741271972656 131.7506866455078 L 1.266896367073059 132.08914184570312 L 1.4263800382614136 132.42137145996094 L 1.6004383563995361 132.74737548828125 L 1.7889846563339233 133.06716918945312 L 1.9919322729110718 133.3807373046875 L 2.2091944217681885 133.68812561035156 L 2.4406845569610596 133.98931884765625 L 2.6863157749176025 134.28431701660156 L 2.9460017681121826 134.57315063476562 L 3.2196552753448486 134.85580444335938 L 3.507189989089966 135.13230895996094 L 3.8085193634033203 135.40264892578125 L 4.123556137084961 135.66685485839844 L 4.452214241027832 135.9249267578125 L 4.794406414031982 136.17686462402344 L 5.150046348571777 136.42266845703125 L 5.519047260284424 136.66236877441406 L 5.901322364807129 136.89596557617188 L 6.296785354614258 137.1234588623047 L 6.705348491668701 137.34487915039062 L 7.126926422119141 137.56019592285156 L 7.561431884765625 137.76943969726562 L 8.008777618408203 137.97262573242188 L 8.468877792358398 138.16973876953125 L 8.941645622253418 138.36080932617188 L 9.426993370056152 138.54583740234375 L 9.924835205078125 138.72483825683594 L 10.43508529663086 138.89779663085938 L 10.95765495300293 139.0647430419922 L 11.492459297180176 139.2256622314453 L 12.039409637451172 139.38058471679688 L 12.598422050476074 139.52951049804688 L 13.16940689086914 139.67245483398438 L 13.752280235290527 139.8094024658203 L 14.346952438354492 139.9403839111328 L 14.953339576721191 140.06539916992188 L 15.571353912353516 140.18446350097656 L 16.200908660888672 140.2975616455078 L 16.841915130615234 140.40472412109375 L 17.49428939819336 140.50596618652344 L 18.15794563293457 140.60125732421875 L 18.832794189453125 140.69064331054688 L 19.518749237060547 140.77410888671875 L 20.21572494506836 140.8516845703125 L 20.923633575439453 140.92335510253906 L 21.64238929748535 140.9891357421875 L 22.371906280517578 141.0490264892578 L 23.11209487915039 141.10305786132812 L 23.862871170043945 141.15122985839844 L 24.624147415161133 141.1935272216797 L 25.395837783813477 141.22998046875 L 26.177852630615234 141.26060485839844 L 26.970109939575195 141.28538513183594 L 27.772518157958984 141.30433654785156 L 28.584993362426758 141.31747436523438 L 29.40744972229004 141.32479858398438 L 30.239797592163086 141.32632446289062 L 31.081953048706055 141.32205200195312 L 31.933828353881836 141.31199645996094 L 32.79533386230469 141.29615783691406 L 33.66638946533203 141.27455139160156 L 34.54690170288086 141.24717712402344 L 35.436790466308594 141.2140350341797 L 36.33596420288086 141.1751708984375 L 37.24433517456055 141.1305389404297 L 38.16182327270508 141.08018493652344 L 39.08833312988281 141.02410888671875 L 40.02378463745117 140.9623260498047 L 40.96809005737305 140.8948211669922 L 41.92115783691406 140.8216094970703 L 42.88290786743164 140.74270629882812 L 43.853248596191406 140.6581268310547 L 44.83209991455078 140.56785583496094 L 45.819366455078125 140.471923828125 L 46.814964294433594 140.37033081054688 L 47.81881332397461 140.26307678222656 L 48.83081817626953 140.15017700195312 L 49.850894927978516 140.03163146972656 L 50.87895965576172 139.907470703125 L 51.914920806884766 139.7776641845703 L 52.95869445800781 139.6422576904297 L 54.010196685791016 139.50123596191406 L 55.0693359375 139.3546142578125 L 56.13602828979492 139.20240783691406 L 57.21018600463867 139.0446014404297 L 58.291725158691406 138.8812255859375 L 59.38055419921875 138.7122802734375 L 60.47658920288086 138.53778076171875 L 61.579742431640625 138.3577117919922 L 62.68992614746094 138.17210388183594 L 63.80706024169922 137.98095703125 L 64.93104553222656 137.78428649902344 L 66.06181335449219 137.5820770263672 L 67.19925689697266 137.37437438964844 L 68.34330749511719 137.16114807128906 L 69.49386596679688 136.9424285888672 L 70.65084838867188 136.7182159423828 L 71.81417083740234 136.48851013183594 L 72.9837417602539 136.2533416748047 L 74.15948486328125 136.0126953125 L 75.34130096435547 135.7666015625 L 76.52911376953125 135.51504516601562 L 77.72282409667969 135.25804138183594 L 78.92235565185547 134.99560546875 L 80.12762451171875 134.7277374267578 L 81.33853149414062 134.45443725585938 L 82.55500030517578 134.1757354736328 L 83.77693939208984 133.89163208007812 L 85.00426483154297 133.60211181640625 L 86.23689270019531 133.30722045898438 L 87.47472381591797 133.00694274902344 L 88.71768951416016 132.70127868652344 L 89.96568298339844 132.3902587890625 L 91.21863555908203 132.07386779785156 L 92.47644805908203 131.75213623046875 L 93.73904418945312 131.425048828125 L 95.0063247680664 131.09263610839844 L 96.27821350097656 130.75489807128906 L 97.55461883544922 130.4118194580078 L 98.83545684814453 130.06344604492188 L 100.12064361572266 129.7097625732422 L 101.41007995605469 129.3507843017578 L 102.70368957519531 128.98651123046875 L 104.00138854980469 128.61695861816406 L 105.30308532714844 128.24212646484375 L 106.60868835449219 127.8620376586914 L 107.9181137084961 127.4766845703125 L 109.23128509521484 127.0860824584961 L 110.54810333251953 126.69023132324219 L 111.86848449707031 126.28915405273438 L 113.19234466552734 125.88284301757812 L 114.51959991455078 125.4713134765625 L 115.85015106201172 125.05458068847656 L 117.18392944335938 124.63262939453125 L 118.52082824707031 124.20549011230469 L 119.86077880859375 123.77316284179688 L 121.20368957519531 123.33565521240234 L 122.5494613647461 122.8929672241211 L 123.89802551269531 122.44512176513672 L 125.24928283691406 121.99211883544922 L 126.6031494140625 121.5339584350586 L 127.95954132080078 121.07066345214844 L 129.31837463378906 120.60223388671875 L 130.67955017089844 120.12867736816406 L 132.04299926757812 119.6500015258789 L 133.40505981445312 119.16746520996094 L 134.7621612548828 118.682373046875 L 136.11419677734375 118.19475555419922 L 137.4611358642578 117.70466613769531 L 138.80287170410156 117.21216583251953 L 140.13934326171875 116.71728515625 L 141.47047424316406 116.22007751464844 L 142.79620361328125 115.7206039428711 L 144.116455078125 115.2188949584961 L 145.43115234375 114.71500396728516 L 146.74021911621094 114.20899200439453 L 148.04359436035156 113.70088958740234 L 149.34120178222656 113.19075775146484 L 150.63296508789062 112.67863464355469 L 151.91880798339844 112.1645736694336 L 153.19866943359375 111.64862823486328 L 154.47247314453125 111.1308364868164 L 155.74014282226562 110.61125946044922 L 157.00160217285156 110.08992767333984 L 158.2567901611328 109.56690979003906 L 159.50563049316406 109.042236328125 L 160.748046875 108.5159683227539 L 161.98397827148438 107.98814392089844 L 163.2133331298828 107.45882415771484 L 164.43605041503906 106.92804718017578 L 165.6520538330078 106.39585876464844 L 166.8612823486328 105.86231994628906 L 168.0636444091797 105.32746887207031 L 169.2590789794922 104.79135131835938 L 170.44752502441406 104.2540283203125 L 171.62889099121094 103.71553802490234 L 172.80311584472656 103.17593383789062 L 173.97010803222656 102.63526153564453 L 175.12982177734375 102.09356689453125 L 176.2821807861328 101.5509033203125 L 177.42709350585938 101.00730895996094 L 178.5644989013672 100.46285247802734 L 179.69432067871094 99.91756439208984 L 180.81649780273438 99.37149810791016 L 181.93093872070312 98.82469940185547 L 183.03759765625 98.2772216796875 L 184.13638305664062 97.72911071777344 L 185.2272186279297 97.180419921875 L 186.31004333496094 96.63118743896484 L 187.38479614257812 96.08147430419922 L 188.4513702392578 95.53131103515625 L 189.5097198486328 94.98076629638672 L 190.5597686767578 94.42987060546875 L 191.6014404296875 93.8786849975586 L 192.63465881347656 93.32725524902344 L 193.65936279296875 92.77561950683594 L 194.6754608154297 92.22383880615234 L 195.6829071044922 91.67195892333984 L 196.68161010742188 91.12002563476562 L 197.67149353027344 90.56808471679688 L 198.6525115966797 90.01618957519531 L 199.6245574951172 89.46438598632812 L 200.58758544921875 88.91272735595703 L 201.54150390625 88.36125183105469 L 202.4862518310547 87.81001281738281 L 203.42176818847656 87.25906372070312 L 204.34796142578125 86.70845031738281 L 205.26475524902344 86.15821075439453 L 206.17208862304688 85.60840606689453 L 207.0699005126953 85.05908203125 L 207.9580841064453 84.5102767944336 L 208.83660888671875 83.9620590209961 L 209.7053680419922 83.4144515991211 L 210.56430053710938 82.86752319335938 L 211.41334533691406 82.32131958007812 L 212.25242614746094 81.77587890625 L 213.08145141601562 81.23125457763672 L 213.90037536621094 80.6875 L 214.7091064453125 80.1446533203125 L 215.50758361816406 79.60277557373047 L 216.29571533203125 79.06190490722656 L 217.07345581054688 78.5220947265625 L 217.84072875976562 77.98338317871094 L 218.59744262695312 77.44583892822266 L 219.34353637695312 76.90949249267578 L 220.0789337158203 76.37439727783203 L 220.80357360839844 75.8405990600586 L 221.51736450195312 75.30815887451172 L 222.2202606201172 74.77710723876953 L 222.9121551513672 74.24750518798828 L 223.59300231933594 73.71939849853516 L 224.26272583007812 73.19282531738281 L 224.92124938964844 72.66785430908203 L 225.56849670410156 72.14451599121094 L 226.20440673828125 71.62286376953125 L 226.82888793945312 71.10294342041016 L 227.44189453125 70.58480834960938 L 228.0433349609375 70.06851196289062 L 228.6331329345703 69.55409240722656 L 229.2112274169922 69.04159545898438 L 229.7775421142578 68.53108215332031 L 230.33201599121094 68.02259063720703 L 230.8745574951172 67.51617431640625 L 231.40509033203125 67.01188659667969 L 231.92356872558594 66.50975799560547 L 232.42990112304688 66.00985717773438 L 232.9240264892578 65.51221466064453 L 233.40586853027344 65.01689147949219 L 233.87533569335938 64.52393341064453 L 234.33238220214844 64.03338623046875 L 234.7769317626953 63.54529571533203 L 235.2089080810547 63.05971908569336 L 235.6282196044922 62.57669448852539 L 236.03482055664062 62.09627914428711 L 236.4286346435547 61.61851501464844 L 236.8095703125 61.143455505371094 L 237.17758178710938 60.671142578125 L 237.53257751464844 60.201629638671875 L 237.87448120117188 59.734962463378906 L 238.2032470703125 59.27119445800781 L 238.51876831054688 58.810367584228516 L 238.8209991455078 58.35253143310547 L 239.10986328125 57.897735595703125 L 239.38528442382812 57.44602966308594 L 239.6471710205078 56.997459411621094 L 239.89549255371094 56.55207443237305 L 240.130126953125 56.10992431640625 L 240.35104370117188 55.67105484008789 L 240.5581512451172 55.23551559448242 L 240.7513885498047 54.80335235595703 L 240.9306640625 54.37461853027344 L 241.09591674804688 53.94935989379883 L 241.2470703125 53.527626037597656 L 241.38406372070312 53.10946273803711 L 241.50682067871094 52.69491958618164 L 241.61524963378906 52.28404235839844 L 241.7093048095703 51.87688446044922 L 241.7888946533203 51.47349166870117 L 241.8539581298828 51.07391357421875 L 241.9044189453125 50.67819595336914 L 241.94020080566406 50.2863883972168 L 241.96124267578125 49.89854049682617 L 241.96746826171875 49.51469802856445 L 241.9587860107422 49.134910583496094 L 241.93515014648438 48.75922393798828 L 241.89646911621094 48.387691497802734 L 241.84268188476562 48.02035903930664 L 241.77371215820312 47.65727615356445 L 241.6894989013672 47.29848861694336 L 241.58995056152344 46.94404983520508 L 241.47500610351562 46.59400177001953 L 241.475 46.594 M 126.81199645996094 107.2770004272461 L 125.41502380371094 107.7672348022461 L 124.02130126953125 108.2514419555664 L 122.63096618652344 108.7296142578125 L 121.24417877197266 109.20172882080078 L 119.86106872558594 109.66777038574219 L 118.48178100585938 110.12771606445312 L 117.1064682006836 110.58155059814453 L 115.73526763916016 111.02925872802734 L 114.36833190917969 111.47081756591797 L 113.00579833984375 111.90621185302734 L 111.6478042602539 112.3354263305664 L 110.29450988769531 112.7584457397461 L 108.946044921875 113.17524719238281 L 107.6025619506836 113.58580780029297 L 106.26419830322266 113.9901123046875 L 104.93110656738281 114.38815307617188 L 103.60342407226562 114.7799072265625 L 102.28129577636719 115.16535186767578 L 100.9648666381836 115.54446411132812 L 99.65428161621094 115.91724395751953 L 98.34968566894531 116.28366088867188 L 97.05122375488281 116.6436996459961 L 95.759033203125 116.99734497070312 L 94.47325897216797 117.34457397460938 L 93.19405364990234 117.68537139892578 L 91.92156219482422 118.01972198486328 L 90.65591430664062 118.34760284423828 L 89.39726257324219 118.66900634765625 L 88.14575958251953 118.98390197753906 L 86.90153503417969 119.29227447509766 L 85.66473388671875 119.59410858154297 L 84.43550872802734 119.88939666748047 L 83.21400451660156 120.1781005859375 L 82.00035858154297 120.46021270751953 L 80.79471588134766 120.73572540283203 L 79.59722137451172 121.00460052490234 L 78.40802001953125 121.26683807373047 L 77.22725677490234 121.52240753173828 L 76.0550765991211 121.77130126953125 L 74.89161682128906 122.01348876953125 L 73.73703002929688 122.24896240234375 L 72.5914535522461 122.47770690917969 L 71.45503997802734 122.69969940185547 L 70.32791900634766 122.9149169921875 L 69.21025085449219 123.12335205078125 L 68.10216522216797 123.3249740600586 L 67.00382232666016 123.51978302001953 L 65.91534423828125 123.7077407836914 L 64.83689880371094 123.88884735107422 L 63.76861572265625 124.06307220458984 L 62.71064376831055 124.23040771484375 L 61.663124084472656 124.39083099365234 L 60.62620162963867 124.54431915283203 L 59.60002136230469 124.69086456298828 L 58.5847282409668 124.83043670654297 L 57.58046340942383 124.9630355834961 L 56.58737564086914 125.088623046875 L 55.60560607910156 125.20719909667969 L 54.63529586791992 125.31873321533203 L 53.67659378051758 125.4232177734375 L 52.72964096069336 125.52062225341797 L 51.794586181640625 125.6109390258789 L 50.87156677246094 125.69415283203125 L 49.960731506347656 125.77023315429688 L 49.062225341796875 125.83917236328125 L 48.176185607910156 125.90095520019531 L 47.302764892578125 125.95555114746094 L 46.442100524902344 126.0029525756836 L 45.59434127807617 126.04314422607422 L 44.75962829589844 126.07609558105469 L 43.938106536865234 126.10179901123047 L 43.12991714477539 126.12023162841797 L 42.33521270751953 126.13137817382812 L 41.55412673950195 126.13522338867188 L 40.78681182861328 126.13174438476562 L 40.033409118652344 126.12092590332031 L 39.29405975341797 126.10275268554688 L 38.56890869140625 126.07720184326172 L 37.85810470581055 126.04425048828125 L 37.16178894042969 126.00389862060547 L 36.4801025390625 125.95611572265625 L 35.813194274902344 125.90087890625 L 35.16120529174805 125.83818817138672 L 34.5242805480957 125.76800537109375 L 33.902565002441406 125.6903305053711 L 33.296199798583984 125.60513305664062 L 32.70532989501953 125.51239776611328 L 32.130104064941406 125.41211700439453 L 31.570661544799805 125.30426025390625 L 31.02714729309082 125.18881225585938 L 30.499706268310547 125.06575775146484 L 29.988481521606445 124.9350814819336 L 29.493619918823242 124.79676055908203 L 29.015260696411133 124.65077209472656 L 28.553550720214844 124.49711608886719 L 28.10863494873047 124.33576202392578 L 27.680654525756836 124.16668701171875 L 27.269756317138672 123.9898910522461 L 26.87608528137207 123.80533599853516 L 26.499780654907227 123.6130142211914 L 26.1409912109375 123.41291046142578 L 25.79985809326172 123.20500946044922 L 25.47652816772461 122.9892807006836 L 25.171142578125 122.76570892333984 L 24.883848190307617 122.53428649902344 L 24.61478614807129 122.29499053955078 L 24.364103317260742 122.04779815673828 L 24.131940841674805 121.7927017211914 L 23.918445587158203 121.52967834472656 L 23.723758697509766 121.25870513916016 L 23.54802894592285 120.97976684570312 L 23.391395568847656 120.6928482055664 L 23.254003524780273 120.39793395996094 L 23.13599967956543 120.09500122070312 L 23.037866592407227 119.78506469726562 L 22.95985984802246 119.4692153930664 L 22.90185546875 119.14752197265625 L 22.863731384277344 118.820068359375 L 22.845361709594727 118.48692321777344 L 22.84662437438965 118.14816284179688 L 22.86739730834961 117.80386352539062 L 22.907556533813477 117.45410919189453 L 22.966976165771484 117.0989761352539 L 23.045536041259766 116.73853302001953 L 23.143110275268555 116.37285614013672 L 23.259578704833984 116.00202941894531 L 23.39481544494629 115.62612915039062 L 23.548696517944336 115.24522399902344 L 23.721101760864258 114.8593978881836 L 23.911903381347656 114.46871948242188 L 24.120983123779297 114.07327270507812 L 24.34821319580078 113.67313385009766 L 24.59347152709961 113.26837158203125 L 24.85663604736328 112.85907745361328 L 25.137582778930664 112.4453125 L 25.436187744140625 112.02716064453125 L 25.752328872680664 111.60469055175781 L 26.08588218688965 111.17799377441406 L 26.436721801757812 110.74713897705078 L 26.80472755432129 110.31219482421875 L 27.189775466918945 109.87324523925781 L 27.59174156188965 109.43037414550781 L 28.0105037689209 108.983642578125 L 28.44593620300293 108.53313446044922 L 28.897918701171875 108.07893371582031 L 29.366323471069336 107.62110900878906 L 29.851032257080078 107.15972900390625 L 30.351919174194336 106.69488525390625 L 30.868858337402344 106.22664642333984 L 31.401731491088867 105.75508880615234 L 31.95041275024414 105.2802963256836 L 32.51477813720703 104.80233001708984 L 33.094703674316406 104.32128143310547 L 33.69007110595703 103.83722686767578 L 34.300750732421875 103.35022735595703 L 34.92662048339844 102.8603744506836 L 35.56755828857422 102.36774444580078 L 36.22344207763672 101.87240600585938 L 36.89414596557617 101.37443542480469 L 37.57954788208008 100.87391662597656 L 38.27952575683594 100.37091827392578 L 38.993953704833984 99.86552429199219 L 39.72270965576172 99.35780334472656 L 40.465667724609375 98.84783935546875 L 41.22270965576172 98.33570861816406 L 41.993709564208984 97.82147979736328 L 42.778541564941406 97.30523681640625 L 43.57708740234375 96.78705596923828 L 44.389217376708984 96.26700592041016 L 45.214813232421875 95.74517059326172 L 46.053749084472656 95.22162628173828 L 46.90590286254883 94.69644927978516 L 47.77115249633789 94.16970825195312 L 48.64937210083008 93.64148712158203 L 49.540435791015625 93.11186981201172 L 50.4442253112793 92.58091735839844 L 51.360618591308594 92.04871368408203 L 52.289485931396484 91.51533508300781 L 53.230709075927734 90.98086547851562 L 54.18415832519531 90.44536590576172 L 55.14971923828125 89.90892028808594 L 56.127262115478516 89.3716049194336 L 57.11666488647461 88.83350372314453 L 58.1178092956543 88.294677734375 L 59.13056182861328 87.75521850585938 L 60.154808044433594 87.21519470214844 L 61.1904182434082 86.6746826171875 L 62.237274169921875 86.1337661743164 L 63.295249938964844 85.59251403808594 L 64.36421966552734 85.0510025024414 L 65.4440689086914 84.50930786132812 L 66.53466796875 83.96751403808594 L 67.6358871459961 83.42568969726562 L 68.74761199951172 82.88391876220703 L 69.86972045898438 82.34226989746094 L 71.00208282470703 81.80081939697266 L 72.14457702636719 81.25965118408203 L 73.29708862304688 80.71884155273438 L 74.45948028564453 80.17845916748047 L 75.63163757324219 79.63858795166016 L 76.81343078613281 79.09929656982422 L 78.00474548339844 78.5606689453125 L 79.20545196533203 78.02277374267578 L 80.41542053222656 77.48570251464844 L 81.6345443725586 76.94951629638672 L 82.86268615722656 76.41429901123047 L 84.0997314453125 75.88011932373047 L 85.34555053710938 75.3470687866211 L 86.60002899169922 74.8152084350586 L 87.86302947998047 74.28462219238281 L 89.13443756103516 73.75538635253906 L 90.41413116455078 73.22757720947266 L 91.70198059082031 72.7012710571289 L 92.99787139892578 72.17654418945312 L 94.30167388916016 71.65347290039062 L 95.6132583618164 71.13213348388672 L 96.9325180053711 70.61259460449219 L 98.25931549072266 70.09495544433594 L 99.5935287475586 69.57926940917969 L 100.93504333496094 69.06562042236328 L 102.28372955322266 68.55408477783203 L 103.63946533203125 68.04474639892578 L 105.00212860107422 67.53767395019531 L 106.37158966064453 67.03294372558594 L 107.74773406982422 66.5306396484375 L 109.13043212890625 66.03082275390625 L 110.51956176757812 65.53358459472656 L 111.91500091552734 65.03900146484375 L 113.31197357177734 64.54876708984375 L 114.70570373535156 64.06455993652344 L 116.09603118896484 63.586387634277344 L 117.48282623291016 63.11427307128906 L 118.86593627929688 62.648231506347656 L 120.2452163696289 62.18828582763672 L 121.62052917480469 61.73445129394531 L 122.99172973632812 61.2867431640625 L 124.3586654663086 60.845184326171875 L 125.72120666503906 60.409786224365234 L 127.07919311523438 59.98057174682617 L 128.4324951171875 59.55755615234375 L 129.7809600830078 59.14075469970703 L 131.1244354248047 58.730194091796875 L 132.46279907226562 58.32588577270508 L 133.7958984375 57.9278450012207 L 135.1235809326172 57.536094665527344 L 136.44570922851562 57.15065002441406 L 137.7621307373047 56.77153396606445 L 139.07272338867188 56.39875411987305 L 140.3773193359375 56.0323371887207 L 141.67578125 55.672298431396484 L 142.9679718017578 55.31865692138672 L 144.2537384033203 54.9714241027832 L 145.53294372558594 54.6306266784668 L 146.80543518066406 54.2962760925293 L 148.0710906982422 53.9683952331543 L 149.32972717285156 53.646995544433594 L 150.58123779296875 53.33209991455078 L 151.82546997070312 53.02372360229492 L 153.06227111816406 52.72188949584961 L 154.29148864746094 52.426605224609375 L 155.51300048828125 52.137901306152344 L 156.7266387939453 51.85578536987305 L 157.93228149414062 51.58027648925781 L 159.12977600097656 51.311397552490234 L 160.3189697265625 51.049163818359375 L 161.49974060058594 50.79359436035156 L 162.6719207763672 50.544700622558594 L 163.83538818359375 50.30250930786133 L 164.98997497558594 50.06703567504883 L 166.1355438232422 49.83829116821289 L 167.27195739746094 49.616302490234375 L 168.39907836914062 49.40108108520508 L 169.51675415039062 49.192649841308594 L 170.6248321533203 48.991024017333984 L 171.72317504882812 48.79621887207031 L 172.8116455078125 48.60825729370117 L 173.89010620117188 48.42715072631836 L 174.95838928222656 48.252925872802734 L 176.016357421875 48.08559036254883 L 177.06387329101562 47.9251708984375 L 178.10079956054688 47.77167892456055 L 179.12698364257812 47.62513732910156 L 180.14227294921875 47.48556137084961 L 181.1465301513672 47.35296630859375 L 182.13961791992188 47.22737503051758 L 183.12139892578125 47.108802795410156 L 184.09170532226562 46.99726486206055 L 185.05039978027344 46.892784118652344 L 185.9973602294922 46.79537582397461 L 186.9324188232422 46.70505905151367 L 187.85543823242188 46.621849060058594 L 188.76626586914062 46.5457649230957 L 189.66477966308594 46.47682571411133 L 190.55081176757812 46.41504669189453 L 191.4242401123047 46.36044692993164 L 192.28489685058594 46.313045501708984 L 193.13265991210938 46.272857666015625 L 193.96737670898438 46.239906311035156 L 194.7888946533203 46.214202880859375 L 195.59707641601562 46.195770263671875 L 196.39178466796875 46.18461990356445 L 197.17286682128906 46.18077850341797 L 197.940185546875 46.18425750732422 L 198.69358825683594 46.195072174072266 L 199.4329376220703 46.21324920654297 L 200.15809631347656 46.238800048828125 L 200.868896484375 46.27174758911133 L 201.56521606445312 46.312103271484375 L 202.2469024658203 46.359886169433594 L 202.91380310058594 46.41511917114258 L 203.5657958984375 46.477813720703125 L 204.2027130126953 46.54799270629883 L 204.82443237304688 46.62567138671875 L 205.43080139160156 46.71086883544922 L 206.02166748046875 46.8036003112793 L 206.59689331054688 46.90388488769531 L 207.15634155273438 47.011741638183594 L 207.69985961914062 47.12718963623047 L 208.227294921875 47.250244140625 L 208.73851013183594 47.38092041015625 L 209.23338317871094 47.51924133300781 L 209.7117462158203 47.665225982666016 L 210.17344665527344 47.818885803222656 L 210.6183624267578 47.98023986816406 L 211.0463409423828 48.14931106567383 L 211.45724487304688 48.32611083984375 L 211.85092163085938 48.51066207885742 L 212.2272186279297 48.70298385620117 L 212.5860137939453 48.9030876159668 L 212.92713928222656 49.110992431640625 L 213.25047302246094 49.32672119140625 L 213.5558624267578 49.550289154052734 L 213.84315490722656 49.78171157836914 L 214.11221313476562 50.0210075378418 L 214.36289978027344 50.2681999206543 L 214.59506225585938 50.52329635620117 L 214.8085479736328 50.78632354736328 L 215.00323486328125 51.05729675292969 L 215.17897033691406 51.33623504638672 L 215.33560180664062 51.62314987182617 L 215.47299194335938 51.918067932128906 L 215.59100341796875 52.22100067138672 L 215.6891326904297 52.53093338012695 L 215.7671356201172 52.84678268432617 L 215.8251495361328 53.16847610473633 L 215.86326599121094 53.495933532714844 L 215.8816375732422 53.829078674316406 L 215.88037109375 54.16783905029297 L 215.85960388183594 54.51213455200195 L 215.81944274902344 54.86188888549805 L 215.76002502441406 55.21702575683594 L 215.68145751953125 55.57746887207031 L 215.58389282226562 55.94314193725586 L 215.46742248535156 56.313968658447266 L 215.33218383789062 56.68987274169922 L 215.1782989501953 57.070777893066406 L 215.0059051513672 57.45660400390625 L 214.81509399414062 57.8472785949707 L 214.60601806640625 58.24272537231445 L 214.3787841796875 58.64286804199219 L 214.13352966308594 59.04762649536133 L 213.870361328125 59.45692443847656 L 213.58941650390625 59.870689392089844 L 213.2908172607422 60.288841247558594 L 212.97467041015625 60.711307525634766 L 212.64111328125 61.138004302978516 L 212.290283203125 61.56886291503906 L 211.92227172851562 62.003807067871094 L 211.5372314453125 62.442752838134766 L 211.13525390625 62.88562774658203 L 210.71649169921875 63.33235549926758 L 210.28106689453125 63.78286361694336 L 209.82908630371094 64.23706817626953 L 209.3606719970703 64.69489288330078 L 208.87596130371094 65.1562728881836 L 208.3750762939453 65.6211166381836 L 207.85813903808594 66.08935546875 L 207.3252716064453 66.56090545654297 L 206.77658081054688 67.03570556640625 L 206.21221923828125 67.51366424560547 L 205.63229370117188 67.99471282958984 L 205.03692626953125 68.47877502441406 L 204.42625427246094 68.96576690673828 L 203.80038452148438 69.45561981201172 L 203.15943908691406 69.94825744628906 L 202.50355529785156 70.44359588623047 L 201.83285522460938 70.94156646728516 L 201.14744567871094 71.44208526611328 L 200.44747924804688 71.94508361816406 L 199.73304748535156 72.45047760009766 L 199.00428771972656 72.95819854736328 L 198.26133728027344 73.4681625366211 L 197.50428771972656 73.98029327392578 L 196.73329162597656 74.49452209472656 L 195.94845581054688 75.0107650756836 L 195.14991760253906 75.52894592285156 L 194.33778381347656 76.04899597167969 L 193.51219177246094 76.57083129882812 L 192.67324829101562 77.09437561035156 L 191.8210906982422 77.61955261230469 L 190.95584106445312 78.14629364013672 L 190.07763671875 78.67450714111328 L 189.1865692138672 79.20413208007812 L 188.28277587890625 79.7350845336914 L 187.3663787841797 80.26728820800781 L 186.43751525878906 80.8006591796875 L 185.4962921142578 81.33513641357422 L 184.5428466796875 81.87063598632812 L 183.57728576660156 82.4070816040039 L 182.5997314453125 82.94438934326172 L 181.61033630371094 83.48249816894531 L 180.60919189453125 84.02131652832031 L 179.596435546875 84.56078338623047 L 178.5721893310547 85.1008071899414 L 177.5365753173828 85.64131164550781 L 176.48973083496094 86.18223571777344 L 175.43174743652344 86.7234878540039 L 174.36277770996094 87.26499938964844 L 173.28292846679688 87.80669403076172 L 172.1923370361328 88.3484878540039 L 171.0911102294922 88.89031219482422 L 169.97938537597656 89.43208312988281 L 168.85728454589844 89.9737319946289 L 167.72491455078125 90.51518249511719 L 166.58242797851562 91.05635070800781 L 165.42991638183594 91.59716033935547 L 164.26751708984375 92.13754272460938 L 163.09536743164062 92.67741394042969 L 161.91357421875 93.21670532226562 L 160.72225952148438 93.75533294677734 L 159.52154541015625 94.29322052001953 L 158.3115692138672 94.8302993774414 L 157.0924530029297 95.36648559570312 L 155.8643035888672 95.90170288085938 L 154.6272735595703 96.43587493896484 L 153.38143920898438 96.96893310546875 L 152.12696838378906 97.50079345703125 L 150.8639678955078 98.03137969970703 L 149.59255981445312 98.56061553955078 L 148.3128662109375 99.08842468261719 L 147.02500915527344 99.61473083496094 L 145.7291259765625 100.13945770263672 L 144.42532348632812 100.66252899169922 L 143.11373901367188 101.18386840820312 L 141.7944793701172 101.70339965820312 L 140.46768188476562 102.2210464477539 L 139.1334686279297 102.73673248291016 L 137.79196166992188 103.25038146972656 L 136.44326782226562 103.76190948486328 L 135.08753967285156 104.27125549316406 L 133.72486877441406 104.77832794189453 L 132.35540771484375 105.2830581665039 L 130.97926330566406 105.78536224365234 L 129.59657287597656 106.28517150878906 L 128.2074432373047 106.78240966796875 L 126.81199645996094 107.2770004272461 L 126.812 107.277" fill="#D2B48C" stroke="none" stroke-width="2" /></g></svg>